<svg viewBox="0 0 73 72" xmlns="http://www.w3.org/2000/svg" xml:space="preserve" style="fill-rule:evenodd;clip-rule:evenodd;stroke-linecap:round;stroke-linejoin:round;stroke-miterlimit:1.5"><path d="M20.482 38.226c2.335 8.712 11.289 13.882 20 11.548 8.706-2.333 13.88-11.295 11.547-20-2.332-8.706-11.294-13.88-20-11.548a16.328 16.328 0 0 0-9.915 7.609" style="fill:none;stroke:#fff;stroke-width:4px"/><path d="M33.515 32.968c.764.188 1.351.53 1.762 1.025.41.496.615 1.092.615 1.79 0 .594-.163 1.148-.488 1.662-.325.514-.828.932-1.507 1.252-.679.321-1.523.481-2.532.481a9.785 9.785 0 0 1-2.087-.226 6.523 6.523 0 0 1-1.818-.665l1.132-2.462c.406.236.842.415 1.309.538.467.123.917.184 1.351.184.387 0 .698-.066.934-.198.235-.132.353-.321.353-.566 0-.453-.391-.679-1.174-.679h-1.316v-2.051l1.457-1.486H27.97v-2.518h7.384V31.1l-1.839 1.868ZM41.126 39.178c-.877 0-1.652-.205-2.327-.615-.674-.41-1.202-1.005-1.584-1.783-.382-.778-.573-1.704-.573-2.78 0-1.075.191-2.001.573-2.779.382-.778.91-1.373 1.584-1.783.675-.41 1.45-.615 2.327-.615.878 0 1.653.205 2.328.615.674.41 1.202 1.005 1.584 1.783.382.778.573 1.704.573 2.779 0 1.076-.191 2.002-.573 2.78-.382.778-.91 1.373-1.584 1.783-.675.41-1.45.615-2.328.615Zm0-2.674c.755 0 1.132-.834 1.132-2.504 0-1.669-.377-2.504-1.132-2.504-.754 0-1.131.835-1.131 2.504 0 1.67.377 2.504 1.131 2.504Z" style="fill:#fff;fill-rule:nonzero"/><path d="m29.698 25.222-7.584.613-.614-7.584" style="fill:none;stroke:#fff;stroke-width:4px"/></svg>