<svg viewBox="0 0 73 72" xmlns="http://www.w3.org/2000/svg" xml:space="preserve" style="fill-rule:evenodd;clip-rule:evenodd;stroke-linecap:round;stroke-linejoin:round;stroke-miterlimit:1.5"><path d="M52.589 38.226c-2.334 8.712-11.289 13.882-20 11.548-8.706-2.333-13.88-11.295-11.547-20 2.333-8.706 11.294-13.88 20-11.548a16.333 16.333 0 0 1 9.916 7.609" style="fill:none;stroke:#fff;stroke-width:4px"/><path d="M34.039 29.049v9.903H30.7v-7.385h-1.698v-2.518h5.037ZM39.74 39.178c-.877 0-1.653-.205-2.327-.615-.674-.41-1.203-1.005-1.585-1.783-.382-.778-.573-1.704-.573-2.78 0-1.075.191-2.001.573-2.779.382-.778.911-1.373 1.585-1.783.674-.41 1.45-.615 2.327-.615s1.653.205 2.327.615c.675.41 1.203 1.005 1.585 1.783.382.778.573 1.704.573 2.779 0 1.076-.191 2.002-.573 2.78-.382.778-.91 1.373-1.585 1.783-.674.41-1.45.615-2.327.615Zm0-2.674c.755 0 1.132-.834 1.132-2.504 0-1.669-.377-2.504-1.132-2.504-.754 0-1.132.835-1.132 2.504 0 1.67.378 2.504 1.132 2.504Z" style="fill:#fff;fill-rule:nonzero"/><path d="m43.373 25.222 7.585.613.613-7.584" style="fill:none;stroke:#fff;stroke-width:4px"/></svg>