<svg viewBox="0 0 80 80" xmlns="http://www.w3.org/2000/svg" xml:space="preserve" style="fill-rule:evenodd;clip-rule:evenodd;stroke-linecap:round;stroke-miterlimit:1.5"><path d="M42.93 21.5h-5.86l-1.01 4.528-3.153 1.306-3.917-2.487-4.143 4.143 2.487 3.917-1.306 3.153-4.528 1.01v5.86l4.528 1.01 1.306 3.153-2.487 3.917 4.143 4.143 3.917-2.487 3.153 1.306 1.01 4.528h5.86l1.01-4.528 3.153-1.306 3.917 2.487 4.143-4.143-2.487-3.917 1.306-3.153 4.528-1.01v-5.86l-4.528-1.01-1.306-3.153 2.487-3.917-4.143-4.143-3.917 2.487-3.153-1.306-1.01-4.528Z" style="fill:none;stroke:#fff;stroke-width:3px"/><path d="M38.68 33.82h2.64l4.86 4.86v2.64l-4.86 4.86h-2.64l-4.86-4.86v-2.64l4.86-4.86Z" style="fill:none;stroke:#fff;stroke-width:3px"/></svg>