<svg viewBox="0 0 80 80" xmlns="http://www.w3.org/2000/svg" xml:space="preserve" style="fill-rule:evenodd;clip-rule:evenodd;stroke-miterlimit:10"><path d="m61.444 23.935 6.435-6.435-6.435-6.435" style="fill:none;stroke:#fff;stroke-width:3px"/><path d="M67.879 17.5H21.5c-5.523 0-10 4.477-10 10v31a10.001 10.001 0 0 0 10 10H30" style="fill:none;stroke:#fff;stroke-width:3px;stroke-miterlimit:1.5"/><path d="M39.468 49.563v3.469h-13.01v-3.469h4.828V37.478l-4.135 2.602-1.937-3.151 6.477-3.932h4.047v16.566h3.73ZM49.558 32.476c2.371 0 4.168.916 5.392 2.747 1.224 1.831 1.836 4.414 1.836 7.748 0 3.354-.612 5.951-1.836 7.792-1.224 1.84-3.021 2.761-5.392 2.761-2.371 0-4.168-.921-5.392-2.761-1.224-1.841-1.836-4.438-1.836-7.792 0-3.334.612-5.917 1.836-7.748 1.224-1.831 3.021-2.747 5.392-2.747Zm0 3.325c-.964 0-1.672.554-2.125 1.662-.453 1.109-.68 2.945-.68 5.508 0 2.641.227 4.51.68 5.609.453 1.099 1.161 1.648 2.125 1.648.983 0 1.691-.549 2.125-1.648.433-1.099.65-2.968.65-5.609 0-2.602-.226-4.447-.679-5.536-.453-1.089-1.152-1.634-2.096-1.634Zm-.029 5.378c.54 0 .993.183 1.359.549.366.366.549.809.549 1.33 0 .54-.183.992-.549 1.359-.366.366-.819.549-1.359.549s-.988-.183-1.345-.549c-.356-.367-.534-.819-.534-1.359 0-.521.178-.964.534-1.33.357-.366.805-.549 1.345-.549Z" style="fill:#fff;fill-rule:nonzero"/></svg>