<?xml version="1.0" encoding="UTF-8" standalone="no"?><!DOCTYPE svg PUBLIC "-//W3C//DTD SVG 1.1//EN" "http://www.w3.org/Graphics/SVG/1.1/DTD/svg11.dtd"><svg width="100%" height="100%" viewBox="0 0 150 150" version="1.1" xmlns="http://www.w3.org/2000/svg" xmlns:xlink="http://www.w3.org/1999/xlink" xml:space="preserve" xmlns:serif="http://www.serif.com/" style="fill-rule:evenodd;clip-rule:evenodd;stroke-linejoin:round;stroke-miterlimit:2;"><rect id="_0-0" serif:id="0-0" x="0" y="0" width="150" height="150" style="fill:none;"/><clipPath id="_clip1"><rect x="0" y="0" width="150" height="150"/></clipPath><g clip-path="url(#_clip1)"><rect x="0" y="0" width="150" height="150" style="fill:none;"/><g><path d="M72.786,5.112L131.022,38.735L131.022,105.98L72.786,139.602L14.55,105.98L14.55,38.735L72.786,5.112Z" style="fill:rgb(3,201,83);"/><path d="M77.214,10.398L135.45,44.02L135.45,111.265L77.214,144.888L18.978,111.265L18.978,44.02L77.214,10.398ZM77.214,13.862L132.45,45.752C132.45,45.752 132.45,109.533 132.45,109.533C132.45,109.533 77.214,141.424 77.214,141.424C77.214,141.424 21.978,109.533 21.978,109.533C21.978,109.533 21.978,45.752 21.978,45.752C21.978,45.752 77.214,13.862 77.214,13.862Z" style="fill:white;"/></g><path d="M98.805,113.434C106.845,113.434 113.434,106.845 113.434,98.805C113.434,98.805 113.434,51.195 113.434,51.195C113.434,43.155 106.845,36.566 98.805,36.566L51.195,36.566C43.155,36.566 36.566,43.155 36.566,51.195L36.566,98.805C36.566,106.845 43.155,113.434 51.195,113.434L98.805,113.434ZM98.805,110.434L51.195,110.434C44.804,110.434 39.566,105.196 39.566,98.805L39.566,51.195C39.566,44.804 44.804,39.566 51.195,39.566L98.805,39.566C105.196,39.566 110.434,44.804 110.434,51.195L110.434,98.805C110.434,105.196 105.196,110.434 98.805,110.434ZM95.361,66.608L101.396,60.574C104.685,57.283 104.685,51.914 101.396,48.624C98.087,45.315 92.736,45.315 89.427,48.624L83.676,54.375C82.569,54.076 81.417,53.892 80.233,53.836C80.178,53.833 80.123,53.832 80.067,53.832L64.714,53.832C60.229,53.832 56.536,57.525 56.536,62.01L56.536,81.514L48.623,89.427C45.314,92.736 45.314,98.087 48.623,101.396C50.268,103.041 52.443,103.873 54.598,103.873C56.754,103.873 58.928,103.041 60.573,101.396L65.782,96.187L73.147,96.187C77.632,96.187 81.325,92.493 81.325,88.009L81.325,86.357C89.447,85.417 95.752,78.515 95.752,70.141C95.752,70.137 95.752,70.134 95.752,70.131C95.749,68.922 95.614,67.743 95.361,66.608ZM57.025,85.268L50.745,91.548C48.609,93.684 48.609,97.138 50.745,99.274C50.745,99.274 50.745,99.274 50.745,99.274C51.806,100.336 53.208,100.873 54.598,100.873C55.989,100.873 57.391,100.335 58.452,99.274L62.392,95.334C59.294,94.34 57.025,91.417 57.025,88.009L57.025,85.268ZM81.744,57.55C81.867,57.379 81.99,57.222 82.107,57.086C81.451,56.951 80.778,56.865 80.091,56.833L77.108,56.832C77.081,56.991 77.067,57.155 77.067,57.321L64.714,57.321C62.143,57.321 60.025,59.439 60.025,62.01L60.025,88.009C60.025,90.58 62.143,92.698 64.714,92.698L73.147,92.698C75.719,92.698 77.836,90.58 77.836,88.009L77.836,82.866C78.366,82.922 78.895,82.979 79.425,82.979C86.515,82.979 92.263,77.231 92.263,70.141C92.247,64.313 88.347,59.399 83.026,57.852C83.05,57.714 83.063,57.573 83.067,57.43L83.066,57.33C83.063,57.449 82.979,57.611 82.84,57.799C82.481,57.7 82.115,57.617 81.744,57.55ZM93.926,63.8L99.274,58.452C101.396,56.33 101.396,52.867 99.274,50.745C97.138,48.609 93.684,48.609 91.548,50.745L86.358,55.935C89.717,57.572 92.413,60.366 93.926,63.8Z" style="fill:rgb(1,99,41);"/></g></svg>