<?xml version="1.0" encoding="UTF-8" standalone="no"?><!DOCTYPE svg PUBLIC "-//W3C//DTD SVG 1.1//EN" "http://www.w3.org/Graphics/SVG/1.1/DTD/svg11.dtd"><svg width="100%" height="100%" viewBox="0 0 150 150" version="1.1" xmlns="http://www.w3.org/2000/svg" xmlns:xlink="http://www.w3.org/1999/xlink" xml:space="preserve" xmlns:serif="http://www.serif.com/" style="fill-rule:evenodd;clip-rule:evenodd;stroke-miterlimit:5;"><rect id="_0-1" serif:id="0-1" x="0" y="0" width="150" height="150" style="fill:none;"/><clipPath id="_clip1"><rect x="0" y="0" width="150" height="150"/></clipPath><g clip-path="url(#_clip1)"><rect x="0" y="0" width="150" height="150" style="fill:none;"/><g><path d="M72.786,12.112L131.022,45.735L131.022,112.98L72.786,146.602L14.55,112.98L14.55,45.735L72.786,12.112Z" style="fill:rgb(3,201,83);"/><path d="M77.214,3.398L135.45,37.02L135.45,104.265L77.214,137.888L18.978,104.265L18.978,37.02L77.214,3.398ZM77.214,6.862L132.45,38.752C132.45,38.752 132.45,102.533 132.45,102.533C132.45,102.533 77.214,134.424 77.214,134.424C77.214,134.424 21.978,102.533 21.978,102.533C21.978,102.533 21.978,38.752 21.978,38.752C21.978,38.752 77.214,6.862 77.214,6.862Z" style="fill:white;"/></g><g><path d="M75,39.65L83.601,66.122L111.435,66.122L88.917,82.483L97.518,108.955L75,92.594L52.482,108.955L61.083,82.483L38.565,66.122L66.399,66.122L75,39.65Z" style="fill:none;stroke:rgb(1,99,41);stroke-width:3px;"/><g><path d="M85.87,100.492C82.574,102.057 78.889,102.933 75,102.933C71.111,102.933 67.426,102.057 64.13,100.492M100.194,74.29C100.329,75.352 100.399,76.435 100.399,77.534C100.399,84.471 97.612,90.762 93.097,95.348M79.167,52.475C87.286,53.817 94.11,59.015 97.694,66.122M56.903,95.348C52.388,90.762 49.601,84.471 49.601,77.534C49.601,76.439 49.67,75.361 49.805,74.303" style="fill:none;stroke:rgb(1,99,41);stroke-width:3px;"/><path d="M52.306,66.122C55.89,59.015 62.714,53.817 70.833,52.475" style="fill:none;stroke:rgb(1,99,41);stroke-width:3px;"/></g><g><path d="M89.066,107.191C84.801,109.216 80.032,110.35 75,110.35C69.968,110.35 65.199,109.216 60.934,107.191M107.6,73.286C107.776,74.661 107.866,76.062 107.866,77.483C107.866,86.46 104.26,94.601 98.418,100.535M80.392,45.058C90.897,46.795 99.728,53.521 104.366,62.717M51.582,100.535C45.74,94.601 42.134,86.46 42.134,77.483C42.134,76.067 42.224,74.672 42.398,73.303" style="fill:none;stroke:rgb(1,99,41);stroke-width:3px;"/><path d="M45.634,62.717C50.272,53.521 59.103,46.795 69.608,45.058" style="fill:none;stroke:rgb(1,99,41);stroke-width:3px;"/></g></g></g></svg>