<?xml version="1.0" encoding="UTF-8" standalone="no"?><!DOCTYPE svg PUBLIC "-//W3C//DTD SVG 1.1//EN" "http://www.w3.org/Graphics/SVG/1.1/DTD/svg11.dtd"><svg width="100%" height="100%" viewBox="0 0 150 150" version="1.1" xmlns="http://www.w3.org/2000/svg" xmlns:xlink="http://www.w3.org/1999/xlink" xml:space="preserve" xmlns:serif="http://www.serif.com/" style="fill-rule:evenodd;clip-rule:evenodd;stroke-linecap:round;stroke-linejoin:round;stroke-miterlimit:1.5;"><rect id="_0-2" serif:id="0-2" x="-0" y="0" width="150" height="150" style="fill:none;"/><clipPath id="_clip1"><rect x="-0" y="0" width="150" height="150"/></clipPath><g clip-path="url(#_clip1)"><rect x="0" y="0" width="150" height="150" style="fill:none;"/><g><path d="M77.786,7.112L136.022,40.735L136.022,107.98L77.786,141.602L19.55,107.98L19.55,40.735L77.786,7.112Z" style="fill:rgb(3,201,83);"/><path d="M72.214,8.398L130.45,42.02L130.45,109.265L72.214,142.888L13.978,109.265L13.978,42.02L72.214,8.398ZM72.214,11.862L127.45,43.752C127.45,43.752 127.45,107.533 127.45,107.533C127.45,107.533 72.214,139.424 72.214,139.424C72.214,139.424 16.978,107.533 16.978,107.533C16.978,107.533 16.978,43.752 16.978,43.752C16.978,43.752 72.214,11.862 72.214,11.862Z" style="fill:white;"/></g><g><path d="M43,68.817L47.05,66.141L61.658,67.66L62.815,89.716L61.079,101.07L47.628,100.781L45.025,96.948L43,68.817Z" style="fill:none;stroke:rgb(1,99,41);stroke-width:3px;"/><path d="M61.874,71.778L68.311,71.778L80.171,49.508L85.522,47.918L89.789,56.017L85.811,66.141L98.973,66.141L107,68.311L105.698,82.774L102.95,99.985L97.744,102.082L78.58,100.347L73.662,95.14L62.087,94.477" style="fill:none;stroke:rgb(1,99,41);stroke-width:3px;"/></g></g></svg>