<?xml version="1.0" encoding="UTF-8" standalone="no"?><!DOCTYPE svg PUBLIC "-//W3C//DTD SVG 1.1//EN" "http://www.w3.org/Graphics/SVG/1.1/DTD/svg11.dtd"><svg width="100%" height="100%" viewBox="0 0 150 150" version="1.1" xmlns="http://www.w3.org/2000/svg" xmlns:xlink="http://www.w3.org/1999/xlink" xml:space="preserve" xmlns:serif="http://www.serif.com/" style="fill-rule:evenodd;clip-rule:evenodd;stroke-linecap:round;stroke-linejoin:round;stroke-miterlimit:1.5;"><rect id="_0-3" serif:id="0-3" x="-0" y="0" width="150" height="150" style="fill:none;"/><clipPath id="_clip1"><rect x="-0" y="0" width="150" height="150"/></clipPath><g clip-path="url(#_clip1)"><rect x="0" y="0" width="150" height="150" style="fill:none;"/><g><g><path d="M77.786,7.112L136.022,40.735L136.022,107.98L77.786,141.602L19.55,107.98L19.55,40.735L77.786,7.112Z" style="fill:rgb(3,201,83);"/><path d="M72.214,8.398L130.45,42.02L130.45,109.265L72.214,142.888L13.978,109.265L13.978,42.02L72.214,8.398ZM72.214,11.862L127.45,43.752C127.45,43.752 127.45,107.533 127.45,107.533C127.45,107.533 72.214,139.424 72.214,139.424C72.214,139.424 16.978,107.533 16.978,107.533C16.978,107.533 16.978,43.752 16.978,43.752C16.978,43.752 72.214,11.862 72.214,11.862Z" style="fill:white;"/></g><g><path d="M57.314,73.987L53.043,81.997L52.295,96.415L53.577,99.334" style="fill:none;stroke:rgb(1,99,41);stroke-width:3px;"/><path d="M48.185,45.794L55.233,55.405L59.505,69.609" style="fill:none;stroke:rgb(1,99,41);stroke-width:3px;"/><path d="M82.467,71.745L86.722,61.92L96.991,54.871" style="fill:none;stroke:rgb(1,99,41);stroke-width:3px;"/><path d="M56.135,76.198L43.012,62.56L41.782,45.472L48.207,38.296L54.805,40.483L65.773,59.826L69.19,70.283L73.701,69.395L75.342,71.309" style="fill:none;stroke:rgb(1,99,41);stroke-width:3px;"/><path d="M74.722,70.586L82.792,56.272L92.703,46.293L103.16,44.242L108.218,52.717L100.495,66.251L90.857,73.359L86.277,76.198" style="fill:none;stroke:rgb(1,99,41);stroke-width:3px;"/><path d="M77.722,95.191L74.66,93.113L67.114,93.605L63.997,96.066" style="fill:none;stroke:rgb(1,99,41);stroke-width:3px;"/><path d="M65.082,95.209L61.318,95.246L57.49,96.613L51.749,100.604L49.835,106.236L52.952,105.963L51.585,109.08L56.943,108.806L59.623,110.283L67.105,109.627" style="fill:none;stroke:rgb(1,99,41);stroke-width:3px;"/><path d="M74.086,110.091L76.738,111.704L83.901,110.283L88.822,108.041L89.041,106.4L93.306,106.947L91.47,103.393L94.454,104.268L90.462,98.581L84.01,94.59L76.835,94.59" style="fill:none;stroke:rgb(1,99,41);stroke-width:3px;"/><path d="M66.13,108.806L69.575,111.704L72.91,111.704L75.261,108.478" style="fill:none;stroke:rgb(1,99,41);stroke-width:3px;"/><path d="M85.389,73.987L87.576,79.434L88.055,91.267L86.995,96.436" style="fill:none;stroke:rgb(1,99,41);stroke-width:3px;"/></g></g></g></svg>