<?xml version="1.0" encoding="UTF-8" standalone="no"?><!DOCTYPE svg PUBLIC "-//W3C//DTD SVG 1.1//EN" "http://www.w3.org/Graphics/SVG/1.1/DTD/svg11.dtd"><svg width="100%" height="100%" viewBox="0 0 150 150" version="1.1" xmlns="http://www.w3.org/2000/svg" xmlns:xlink="http://www.w3.org/1999/xlink" xml:space="preserve" xmlns:serif="http://www.serif.com/" style="fill-rule:evenodd;clip-rule:evenodd;stroke-miterlimit:1.5;"><rect id="_1-25" serif:id="1-25" x="0" y="0" width="150" height="150" style="fill:none;"/><clipPath id="_clip1"><rect x="0" y="0" width="150" height="150"/></clipPath><g clip-path="url(#_clip1)"><rect x="0" y="0" width="150" height="150" style="fill:none;"/><g><path d="M77.786,2.112L136.022,35.735L136.022,102.98L77.786,136.602L19.55,102.98L19.55,35.735L77.786,2.112Z" style="fill:rgb(3,201,83);"/><path d="M72.214,13.398L130.45,47.02L130.45,114.265L72.214,147.888L13.978,114.265L13.978,47.02L72.214,13.398ZM72.214,16.862L127.45,48.752C127.45,48.752 127.45,112.533 127.45,112.533C127.45,112.533 72.214,144.424 72.214,144.424C72.214,144.424 16.978,112.533 16.978,112.533C16.978,112.533 16.978,48.752 16.978,48.752C16.978,48.752 72.214,16.862 72.214,16.862Z" style="fill:white;"/></g><g><path d="M86.924,56.567L30.344,64.477C30.344,64.477 29.372,57.928 28.606,52.771L33.86,46.182C47.352,45.141 78.309,42.752 78.309,42.752L86.924,56.567Z" style="fill:none;stroke:rgb(1,99,41);stroke-width:3px;"/><path d="M49.38,61.477L32.602,104.897L59.75,120.692L89.859,83.672L49.38,61.477Z" style="fill:none;stroke:rgb(1,99,41);stroke-width:3px;"/><path d="M42.259,45.534L45.015,34.345L57.393,29.308L67.469,43.588" style="fill:none;stroke:rgb(1,99,41);stroke-width:3px;"/><path d="M69.08,59.062L73.05,62.473L72.202,66.713L78.138,68.833L78.901,77.664" style="fill:none;stroke:rgb(1,99,41);stroke-width:3px;"/><path d="M100.09,40.304L97.622,65.478L122.302,62.023L107.494,55.606L100.09,40.304Z" style="fill:none;stroke:rgb(1,99,41);stroke-width:3px;"/><path d="M97.622,65.478L82.814,79.299" style="fill:none;stroke:rgb(1,99,41);stroke-width:3px;"/><path d="M80.84,60.542L101.077,81.273" style="fill:none;stroke:rgb(1,99,41);stroke-width:3px;"/><path d="M52.538,77.664L42.259,100.571" style="fill:none;stroke:rgb(1,99,41);stroke-width:3px;stroke-linecap:round;stroke-linejoin:round;"/><path d="M52.538,104.571L63.538,81.571" style="fill:none;stroke:rgb(1,99,41);stroke-width:3px;stroke-linecap:round;stroke-linejoin:round;"/><path d="M58.038,112.571L73.991,89.117" style="fill:none;stroke:rgb(1,99,41);stroke-width:3px;stroke-linecap:round;stroke-linejoin:round;"/></g></g></svg>