<?xml version="1.0" encoding="UTF-8" standalone="no"?><!DOCTYPE svg PUBLIC "-//W3C//DTD SVG 1.1//EN" "http://www.w3.org/Graphics/SVG/1.1/DTD/svg11.dtd"><svg width="100%" height="100%" viewBox="0 0 150 150" version="1.1" xmlns="http://www.w3.org/2000/svg" xmlns:xlink="http://www.w3.org/1999/xlink" xml:space="preserve" xmlns:serif="http://www.serif.com/" style="fill-rule:evenodd;clip-rule:evenodd;stroke-miterlimit:1.5;"><rect id="_1-84" serif:id="1-84" x="0" y="0" width="150" height="150" style="fill:none;"/><rect x="0" y="0" width="150" height="150" style="fill:none;"/><g><path d="M75,7.755L133.236,41.378L133.236,108.622L75,142.245L16.764,108.622L16.764,41.378L75,7.755Z" style="fill:rgb(3,201,83);"/><path d="M69.429,9.041L127.664,42.663L127.664,109.908L69.429,143.531L11.193,109.908L11.193,42.663L69.429,9.041ZM69.429,12.505L124.664,44.395C124.664,44.395 124.664,108.176 124.664,108.176C124.664,108.176 69.429,140.067 69.429,140.067C69.429,140.067 14.193,108.176 14.193,108.176C14.193,108.176 14.193,44.395 14.193,44.395C14.193,44.395 69.429,12.505 69.429,12.505Z" style="fill:white;"/></g><g><g><path d="M79.714,67.143L88.714,53.143L112.714,42.143L115.714,51.143L106.714,75.143L93.714,78.143" style="fill:none;stroke:rgb(1,99,41);stroke-width:3px;"/><path d="M93.714,60.143L97.714,55.143L105.714,56.143L100.714,65.143L93.714,60.143Z" style="fill:none;stroke:rgb(1,99,41);stroke-width:3px;"/><path d="M88.714,92.143L90.714,96.143L95.714,96.143L98.714,91.143" style="fill:none;stroke:rgb(1,99,41);stroke-width:3px;"/><path d="M81.714,77.143L93.714,78.143L105.714,85.143L105.714,95.143L95.714,109.143L82.714,95.143L79.714,85.143" style="fill:none;stroke:rgb(1,99,41);stroke-width:3px;"/></g><g><path d="M64.714,67.143L55.714,53.143L31.714,42.143L28.714,51.143L37.714,75.143L50.714,78.143" style="fill:none;stroke:rgb(1,99,41);stroke-width:3px;"/><path d="M50.714,60.143L46.714,55.143L38.714,56.143L43.714,65.143L50.714,60.143Z" style="fill:none;stroke:rgb(1,99,41);stroke-width:3px;"/><path d="M55.714,92.143L53.714,96.143L48.714,96.143L45.714,91.143" style="fill:none;stroke:rgb(1,99,41);stroke-width:3px;"/><path d="M62.714,77.143L50.714,78.143L38.714,85.143L38.714,95.143L48.714,109.143L61.714,95.143L64.714,85.143" style="fill:none;stroke:rgb(1,99,41);stroke-width:3px;"/></g><path d="M68.714,60.143L75.714,60.143L77.714,77.143L75.714,91.143L68.714,91.143L66.714,77.143L68.714,60.143Z" style="fill:none;stroke:rgb(1,99,41);stroke-width:3px;"/><path d="M73.714,60.143L77.714,48.143L87.714,42.143" style="fill:none;stroke:rgb(1,99,41);stroke-width:3px;"/><path d="M70.714,60.143L66.714,48.143L56.714,42.143" style="fill:none;stroke:rgb(1,99,41);stroke-width:3px;"/></g></svg>