<svg viewBox="0 0 150 150" xmlns="http://www.w3.org/2000/svg" xml:space="preserve" style="fill-rule:evenodd;clip-rule:evenodd;stroke-linejoin:round;stroke-miterlimit:2"><path style="fill:none" d="M0 0h150v150H0z"/><clipPath id="a"><path d="M0 0h150v150H0z"/></clipPath><g clip-path="url(#a)"><path style="fill:none" d="M0 0h150v150H0z"/><path d="m77.786 12.112 58.236 33.623v67.245l-58.236 33.622L19.55 112.98V45.735l58.236-33.623Z" style="fill:#03c953"/><path d="M72.214 3.398 130.45 37.02v67.245l-58.236 33.623-58.236-33.623V37.02L72.214 3.398Zm0 3.464 55.236 31.89v63.781l-55.236 31.891-55.236-31.891V38.752l55.236-31.89Z" style="fill:#fff"/><g><path d="M57.95 60.754H40.066V72.6h-3.311V46.481h25.797c1.226 0 2.287.325 3.182.975a6.4 6.4 0 0 1 2.06 2.501 7.403 7.403 0 0 1 .717 3.182 7.008 7.008 0 0 1-.975 3.587c-.65 1.116-1.575 1.944-2.777 2.483l7.383 13.388H64.15l-6.161-11.845-.039.002ZM40.066 49.35v8.719H56.92c.785 0 1.478-.196 2.079-.589a4.25 4.25 0 0 0 1.435-1.582 4.519 4.519 0 0 0 .533-2.17c0-.834-.166-1.576-.497-2.226a4.1 4.1 0 0 0-1.361-1.563 3.409 3.409 0 0 0-1.968-.589H40.066Z" style="fill:#03c953"/><path d="m56.169 63.754 6.16 11.843h14.894l-8.539-15.483a9.053 9.053 0 0 0 1.445-1.878 9.961 9.961 0 0 0 1.382-5.097c0-1.546-.332-3.032-1.002-4.458a9.362 9.362 0 0 0-3.013-3.653c-1.393-1.012-3.035-1.547-4.944-1.547H33.755V75.6h9.311V63.754h13.103Zm2.66-1.387 5.321 10.23h7.992l-7.383-13.388c1.202-.539 2.127-1.367 2.777-2.483a7.008 7.008 0 0 0 .975-3.587 7.403 7.403 0 0 0-.717-3.182 6.4 6.4 0 0 0-2.06-2.501c-.895-.65-1.956-.975-3.182-.975H36.755V72.6h3.311V60.754H57.95v.244a7.338 7.338 0 0 1-1.03.071h-.386c.477 1.217 1.236 2.363 1.416 2.626v.034l.004.002.003-.026-.007-.01v-2.697l.154-.025.112.215a43.179 43.179 0 0 1-.259 2.517l.032.047.84-1.385Zm-.879 1.387Zm0-5.812v-.135a.372.372 0 0 1 .095.11c.34-.098.658-.244.954-.437a4.25 4.25 0 0 0 1.435-1.582 4.519 4.519 0 0 0 .533-2.17c0-.834-.166-1.576-.497-2.226a4.1 4.1 0 0 0-1.361-1.563 3.409 3.409 0 0 0-1.968-.589H40.066v8.719H56.92c.363 0 .707-.042 1.03-.127ZM43.066 52.35h14.075c.103 0 .199.014.28.069.162.11.283.262.376.445.128.251.17.542.17.864 0 .271-.054.522-.176.751a1.307 1.307 0 0 1-.433.489c-.125.082-.274.101-.438.101H43.066V52.35Z" style="fill:#016329"/><path d="M113.245 65.387V72.6H78.03V46.481h34.884v7.213H89.478v4.191h21.596v2.759H89.478v4.743h23.767Z" style="fill:#03c953"/><path d="M114.074 62.387v-5.693h1.84V43.481H75.03V75.6h41.215V62.387h-2.171Zm-.829 3V72.6H78.03V46.481h34.884v7.213H89.478v4.191h21.596v2.759H89.478v4.743h23.767Z" style="fill:#016329"/><path d="M60.098 93.181c0 1.965-.431 3.728-1.292 5.29-.862 1.562-2.168 2.793-3.918 3.695-1.75.902-3.904 1.353-6.461 1.353-3.85 0-6.758-.929-8.724-2.786-1.965-1.858-2.948-4.375-2.948-7.552V74.603h8.32v18.335c0 1.589.262 2.753.787 3.494.525.74 1.38 1.11 2.565 1.11 1.184 0 2.039-.37 2.564-1.11.525-.741.788-1.905.788-3.494V74.603h8.319v18.578Z" style="fill:#03c953;fill-rule:nonzero"/><path d="M48.637 94.526a1.752 1.752 0 0 1-.21.016c-.062 0-.143-.007-.211-.016-.16-.371-.141-.912-.141-1.588V71.603h-14.32v21.578c0 4.106 1.347 7.33 3.888 9.732 2.44 2.307 6.003 3.606 10.784 3.606 3.105 0 5.711-.591 7.836-1.686 2.317-1.195 4.028-2.845 5.169-4.913 1.099-1.99 1.666-4.234 1.666-6.739V71.603H48.779v21.335c0 .676.018 1.217-.142 1.588Zm11.461-1.345c0 1.965-.431 3.728-1.292 5.29-.862 1.562-2.168 2.793-3.918 3.695-1.75.902-3.904 1.353-6.461 1.353-3.85 0-6.758-.929-8.724-2.786-1.965-1.858-2.948-4.375-2.948-7.552V74.603h8.32v18.335c0 1.589.262 2.753.787 3.494.525.74 1.38 1.11 2.565 1.11 1.184 0 2.039-.37 2.564-1.11.525-.741.788-1.905.788-3.494V74.603h8.319v18.578Z" style="fill:#016329"/><path d="M77.342 73.796c4.281 0 7.741 1.279 10.379 3.836l-3.675 4.322c-1.884-1.508-3.89-2.262-6.017-2.262-.996 0-1.75.175-2.262.525-.511.35-.767.848-.767 1.494 0 .485.141.882.424 1.192.283.309.754.599 1.414.868.659.269 1.729.646 3.21 1.131 2.962.942 5.095 2.127 6.401 3.554 1.306 1.426 1.959 3.378 1.959 5.855 0 1.804-.478 3.399-1.434 4.786-.956 1.387-2.322 2.47-4.099 3.251-1.777.781-3.877 1.171-6.3 1.171-2.477 0-4.658-.39-6.542-1.171-1.885-.781-3.473-1.804-4.766-3.069l4.079-4.483c2.127 1.831 4.429 2.746 6.906 2.746 1.158 0 2.033-.235 2.625-.707.592-.471.888-1.083.888-1.837 0-.565-.127-1.037-.383-1.414s-.707-.727-1.353-1.05c-.646-.323-1.589-.673-2.827-1.05-3.258-1.023-5.533-2.254-6.825-3.695-1.292-1.44-1.939-3.237-1.939-5.391 0-1.75.472-3.271 1.414-4.564.942-1.292 2.241-2.288 3.897-2.988 1.656-.7 3.52-1.05 5.593-1.05Z" style="fill:#03c953;fill-rule:nonzero"/><path d="m68.225 91.57-7.123 7.829 2.066 2.023c1.552 1.52 3.453 2.76 5.716 3.698 2.217.918 4.778 1.399 7.691 1.399 2.889 0 5.388-.493 7.507-1.424 2.333-1.026 4.107-2.475 5.362-4.295 1.297-1.882 1.964-4.041 1.964-6.489 0-3.347-.981-5.952-2.746-7.881-.697-.762-1.58-1.483-2.657-2.149l5.823-6.846-2.019-1.957c-3.175-3.078-7.315-4.682-12.467-4.682-2.507 0-4.759.44-6.761 1.287-2.196.928-3.903 2.27-5.153 3.984-1.309 1.795-1.99 3.9-1.99 6.331 0 2.96.93 5.415 2.706 7.395.551.614 1.243 1.209 2.081 1.777Zm9.117-17.774c4.281 0 7.741 1.279 10.379 3.836l-3.675 4.322c-1.884-1.508-3.89-2.262-6.017-2.262-.996 0-1.75.175-2.262.525-.511.35-.767.848-.767 1.494 0 .485.141.882.424 1.192.283.309.754.599 1.414.868.659.269 1.729.646 3.21 1.131 2.962.942 5.095 2.127 6.401 3.554 1.306 1.426 1.959 3.378 1.959 5.855 0 1.804-.478 3.399-1.434 4.786-.956 1.387-2.322 2.47-4.099 3.251-1.777.781-3.877 1.171-6.3 1.171-2.477 0-4.658-.39-6.542-1.171-1.885-.781-3.473-1.804-4.766-3.069l4.079-4.483c2.127 1.831 4.429 2.746 6.906 2.746 1.158 0 2.033-.235 2.625-.707.592-.471.888-1.083.888-1.837 0-.565-.127-1.037-.383-1.414s-.707-.727-1.353-1.05c-.646-.323-1.589-.673-2.827-1.05-3.258-1.023-5.533-2.254-6.825-3.695-1.292-1.44-1.939-3.237-1.939-5.391 0-1.75.472-3.271 1.414-4.564.942-1.292 2.241-2.288 3.897-2.988 1.656-.7 3.52-1.05 5.593-1.05Z" style="fill:#016329"/><path d="m113.245 74.603-.848 5.776h-9.289v5.25h8.158v5.613h-8.158v5.654h9.935v5.815H94.789V74.603h18.456Z" style="fill:#03c953;fill-rule:nonzero"/><path d="M114.266 93.896V83.379h.722l1.729-11.776H91.789v34.108h24.254V93.896h-1.777Zm-1.021-19.293-.848 5.776h-9.289v5.25h8.158v5.613h-8.158v5.654h9.935v5.815H94.789V74.603h18.456Z" style="fill:#016329"/></g></g></svg>