<?xml version="1.0" encoding="UTF-8" standalone="no"?><!DOCTYPE svg PUBLIC "-//W3C//DTD SVG 1.1//EN" "http://www.w3.org/Graphics/SVG/1.1/DTD/svg11.dtd"><svg width="100%" height="100%" viewBox="0 0 150 150" version="1.1" xmlns="http://www.w3.org/2000/svg" xmlns:xlink="http://www.w3.org/1999/xlink" xml:space="preserve" xmlns:serif="http://www.serif.com/" style="fill-rule:evenodd;clip-rule:evenodd;stroke-linejoin:round;stroke-miterlimit:2;"><rect id="_2-48" serif:id="2-48" x="0" y="0" width="150" height="150" style="fill:none;"/><rect x="0" y="0" width="150" height="150" style="fill:none;"/><g><path d="M82.786,7.112L141.022,40.735L141.022,107.98L82.786,141.602L24.55,107.98L24.55,40.735L82.786,7.112Z" style="fill:rgb(3,201,83);"/><path d="M67.214,8.398L125.45,42.02L125.45,109.265L67.214,142.888L8.978,109.265L8.978,42.02L67.214,8.398ZM67.214,11.862L122.45,43.752C122.45,43.752 122.45,107.533 122.45,107.533C122.45,107.533 67.214,139.424 67.214,139.424C67.214,139.424 11.978,107.533 11.978,107.533C11.978,107.533 11.978,43.752 11.978,43.752C11.978,43.752 67.214,11.862 67.214,11.862Z" style="fill:white;"/></g><path d="M55.221,58.902L58.181,39.902L43.971,39.903L41.011,58.902C41.011,58.902 30.444,58.902 30.444,58.902L30.444,72.135L38.949,72.135C38.949,72.135 38.057,77.863 38.057,77.863C38.057,77.863 30.444,77.863 30.444,77.863L30.444,91.097L35.996,91.097C35.996,91.097 33.037,110.097 33.037,110.097L47.246,110.098L50.206,91.098C50.206,91.097 94.778,91.097 94.778,91.097C94.778,91.098 91.818,110.097 91.818,110.097L106.028,110.098L108.988,91.098C108.988,91.097 119.556,91.097 119.556,91.097L119.556,77.864L111.05,77.864C111.05,77.864 111.942,72.136 111.942,72.136C111.942,72.136 119.556,72.136 119.556,72.136L119.556,58.902L114.003,58.903C114.003,58.903 116.962,39.902 116.962,39.902L102.753,39.903L99.793,58.902L55.221,58.902ZM51.717,61.902L102.362,61.902L105.322,42.902L113.459,42.902L110.5,61.902L116.556,61.902L116.556,69.135L109.373,69.135L107.546,80.863L116.556,80.863L116.556,88.097L106.419,88.097L103.459,107.097L95.322,107.097L98.282,88.097L47.637,88.097L44.677,107.097L36.54,107.097L39.499,88.097L33.444,88.097L33.444,80.863L40.626,80.863L42.453,69.135L33.444,69.135L33.444,61.902L43.58,61.902L46.54,42.902L54.677,42.902L51.717,61.902ZM101.236,69.135L50.59,69.135L48.763,80.863L99.409,80.863L101.236,69.135ZM97.732,72.135L96.84,77.863C96.84,77.863 52.267,77.864 52.267,77.864C52.267,77.864 53.159,72.136 53.159,72.136L97.732,72.135Z" style="fill:rgb(1,99,41);"/></svg>