<svg viewBox="0 0 150 150" xmlns="http://www.w3.org/2000/svg" xml:space="preserve" style="fill-rule:evenodd;clip-rule:evenodd;stroke-linejoin:round;stroke-miterlimit:2"><path style="fill:none" d="M0 0h150v150H0z"/><clipPath id="a"><path d="M0 0h150v150H0z"/></clipPath><g clip-path="url(#a)"><path style="fill:none" d="M0 0h150v150H0z"/><path d="m72.786 5.112 58.236 33.623v67.245l-58.236 33.622L14.55 105.98V38.735L72.786 5.112Z" style="fill:#03c953"/><path d="M77.214 10.398 135.45 44.02v67.245l-58.236 33.623-58.236-33.623V44.02l58.236-33.622Zm0 3.464 55.236 31.89v63.781l-55.236 31.891-55.236-31.891V45.752l55.236-31.89Z" style="fill:#fff"/><g><path d="M53.32 63.318H35.439v11.844h-3.31V49.048H57.92c1.227 0 2.287.324 3.182.974a6.407 6.407 0 0 1 2.06 2.501 7.4 7.4 0 0 1 .717 3.182c0 1.275-.325 2.47-.975 3.586-.65 1.116-1.575 1.943-2.777 2.483l7.382 13.385h-7.99l-6.161-11.843-.038.002ZM35.439 51.916v8.717H52.29c.785 0 1.478-.196 2.078-.588a4.258 4.258 0 0 0 1.435-1.582 4.519 4.519 0 0 0 .533-2.17c0-.833-.165-1.575-.496-2.225a4.108 4.108 0 0 0-1.361-1.563 3.416 3.416 0 0 0-1.968-.589H35.439Z" style="fill:#03c953"/><path d="m51.539 66.318 5.318 10.226a3.002 3.002 0 0 0 2.662 1.615h7.99a3 3 0 0 0 2.627-4.449l-6.084-11.031a9.019 9.019 0 0 0 1.445-1.878 9.96 9.96 0 0 0 1.382-5.096c0-1.546-.332-3.032-1.002-4.457a9.354 9.354 0 0 0-3.012-3.653c-1.394-1.012-3.036-1.547-4.945-1.547H32.129a3 3 0 0 0-3 3v26.114a3 3 0 0 0 3 3h3.31a3 3 0 0 0 3-3v-8.844h13.1Zm2.66-1.387 5.32 10.228h7.99l-7.382-13.385c1.202-.54 2.127-1.367 2.777-2.483a7.007 7.007 0 0 0 .975-3.586 7.4 7.4 0 0 0-.717-3.182 6.407 6.407 0 0 0-2.06-2.501c-.895-.65-1.955-.974-3.182-.974H32.129v26.114h3.31V63.318H53.32v.245a7.35 7.35 0 0 1-1.03.07h-.386c.477 1.217 1.236 2.363 1.416 2.626v.034l.003.002.004-.026-.007-.01v-2.696l.154-.025.111.214a43.528 43.528 0 0 1-.258 2.517l.031.047.841-1.385Zm-.879-4.424v-.136a.4.4 0 0 1 .095.11c.34-.098.658-.243.953-.436a4.258 4.258 0 0 0 1.435-1.582 4.519 4.519 0 0 0 .533-2.17c0-.833-.165-1.575-.496-2.225a4.108 4.108 0 0 0-1.361-1.563 3.416 3.416 0 0 0-1.968-.589H35.439v8.717H52.29c.363 0 .707-.042 1.03-.126Zm-14.881-5.591h14.072c.103 0 .199.014.279.069.162.11.283.262.377.445.127.251.169.542.169.863 0 .271-.053.523-.176.751a1.305 1.305 0 0 1-.432.489c-.125.082-.275.1-.438.1H38.439v-2.717Z" style="fill:#016329"/><path d="M108.604 67.947v7.212H73.396V49.045h34.877v7.212H84.842v4.19h21.592v2.759H84.842v4.741h23.762Z" style="fill:#03c953"/><path d="M109.434 64.947v-5.69h1.839V46.045H70.396v32.114h41.208V64.947h-2.17Zm-.83 3v7.212H73.396V49.045h34.877v7.212H84.842v4.19h21.592v2.759H84.842v4.741h23.762Z" style="fill:#016329"/><path d="M.352-.716a.33.33 0 0 1 .224.082l-.095.112a.273.273 0 0 0-.058-.034.158.158 0 0 0-.061-.012.103.103 0 0 0-.094.055.312.312 0 0 0-.034.163.3.3 0 0 0 .034.161.109.109 0 0 0 .097.054.153.153 0 0 0 .064-.014.35.35 0 0 0 .065-.042l.09.114a.347.347 0 0 1-.101.069.348.348 0 0 1-.306-.015.282.282 0 0 1-.116-.125A.457.457 0 0 1 .02-.35a.43.43 0 0 1 .042-.197.298.298 0 0 1 .117-.126.34.34 0 0 1 .173-.043Z" style="fill:#03c953;fill-rule:nonzero" transform="translate(27.267 100.351) scale(30.11513)"/><path d="m.635-.696-.222.439V0H.207v-.256l-.222-.44H.21l.103.284.104-.284h.218Z" style="fill:#03c953;fill-rule:nonzero" transform="translate(47.262 100.351) scale(30.11513)"/><path d="M.352-.716a.33.33 0 0 1 .224.082l-.095.112a.273.273 0 0 0-.058-.034.158.158 0 0 0-.061-.012.103.103 0 0 0-.094.055.312.312 0 0 0-.034.163.3.3 0 0 0 .034.161.109.109 0 0 0 .097.054.153.153 0 0 0 .064-.014.35.35 0 0 0 .065-.042l.09.114a.347.347 0 0 1-.101.069.348.348 0 0 1-.306-.015.282.282 0 0 1-.116-.125A.457.457 0 0 1 .02-.35a.43.43 0 0 1 .042-.197.298.298 0 0 1 .117-.126.34.34 0 0 1 .173-.043Z" style="fill:#03c953;fill-rule:nonzero" transform="translate(67.742 100.351) scale(30.11513)"/><path d="M.249-.696v.538h.263L.491 0H.043v-.696h.206Z" style="fill:#03c953;fill-rule:nonzero" transform="translate(88.339 100.351) scale(30.11513)"/><path d="m.5-.696-.021.143h-.23v.13h.202v.139H.249v.14h.246V0H.043v-.696H.5Z" style="fill:#03c953;fill-rule:nonzero" transform="translate(107.072 100.351) scale(30.11513)"/><path d="m1275.43 2141.31-2.25-4.45h.43c-.33-.41-.7-.8-1.11-1.16-7.04-6.08-15.34-9.15-24.9-9.15-7.27 0-13.66 1.69-19.21 4.91-5.73 3.32-10.22 8.09-13.43 14.39-2.97 5.83-4.55 12.76-4.55 20.82 0 8.33 1.55 15.39 4.42 21.2 3.16 6.4 7.68 11.2 13.46 14.48 5.5 3.12 12.01 4.78 19.56 4.78 5.19 0 10.05-1.07 14.59-3.16 4.39-2.03 8.11-4.62 11.21-7.71 3.08-3.08 3.37-7.98.67-11.39l-7.75-9.82c-2.93-3.7-8.29-4.35-12.01-1.46-1.49 1.16-2.83 2.06-4.05 2.64-.56.26-1.16.38-1.79.38-.49 0-.86-.22-1.12-.63-1.29-2.04-1.59-5.19-1.59-9.31 0-4.21.33-7.44 1.64-9.58.2-.34.43-.62.81-.62.66 0 1.29.11 1.88.36 1.07.45 2.16 1.11 3.29 1.94 3.64 2.66 8.71 2.07 11.62-1.37l8.19-9.65a8.554 8.554 0 0 0 1.99-6.44Zm-27.83-6.17c7.41 0 13.84 2.35 19.29 7.06l-8.18 9.65c-1.72-1.26-3.4-2.24-5.04-2.93-1.64-.69-3.37-1.03-5.21-1.03-3.51 0-6.22 1.58-8.14 4.73-1.93 3.16-2.89 7.85-2.89 14.05 0 6.2.98 10.84 2.93 13.91 1.95 3.07 4.74 4.61 8.36 4.61 1.95 0 3.77-.4 5.47-1.21 1.69-.8 3.57-2.01 5.64-3.61l7.75 9.82c-2.41 2.41-5.32 4.41-8.74 5.99-3.42 1.57-7.08 2.36-10.99 2.36-5.91 0-11.02-1.22-15.33-3.66-4.31-2.44-7.64-6.04-9.99-10.81-2.36-4.77-3.54-10.57-3.54-17.4 0-6.55 1.21-12.19 3.62-16.93s5.77-8.36 10.08-10.86c4.31-2.49 9.28-3.74 14.91-3.74Z" style="fill:#016329" transform="matrix(.34956 0 0 .34956 -398.246 -667.576)"/><path d="m1265.82 2141.31-.3-.58a8.604 8.604 0 0 1 .35-8.37 8.586 8.586 0 0 1 7.31-4.08h19.39c3.61 0 6.83 2.26 8.06 5.65l.85 2.33.86-2.35a8.589 8.589 0 0 1 8.06-5.63h18.78a8.56 8.56 0 0 1 7.31 4.09c1.56 2.53 1.69 5.7.35 8.36l-18.2 36v20.09c0 4.74-3.84 8.58-8.58 8.58h-17.75c-4.74 0-8.58-3.84-8.58-8.58v-20.01l-17.23-34.14.39-.47c-.35-.31-.71-.6-1.07-.89Zm63.36-4.45-19.12 37.82v22.14h-17.75v-22.05l-19.13-37.91h19.39l8.87 24.47 8.96-24.47h18.78Z" style="fill:#016329" transform="matrix(.34956 0 0 .34956 -398.246 -667.576)"/><path d="M1363.38 2126.55c-7.26 0-13.65 1.69-19.21 4.91-5.72 3.32-10.22 8.09-13.42 14.39-2.97 5.83-4.55 12.76-4.55 20.82 0 8.33 1.55 15.39 4.42 21.2 3.16 6.4 7.67 11.2 13.46 14.48 5.5 3.12 12 4.78 19.56 4.78 5.19 0 10.05-1.07 14.59-3.16 4.38-2.03 8.11-4.62 11.21-7.71a8.592 8.592 0 0 0 .67-11.39l-7.76-9.82a8.582 8.582 0 0 0-12-1.46c-1.49 1.16-2.83 2.06-4.06 2.64-.55.26-1.15.38-1.79.38-.48 0-.85-.22-1.11-.63-1.3-2.04-1.59-5.19-1.59-9.31 0-4.21.33-7.44 1.63-9.58.21-.34.43-.62.81-.62.67 0 1.3.11 1.89.36 1.07.45 2.16 1.11 3.29 1.94 3.63 2.66 8.71 2.07 11.62-1.37l8.19-9.65c3.04-3.59 2.62-8.97-.94-12.05-7.05-6.08-15.34-9.15-24.91-9.15Zm0 8.59c7.41 0 13.84 2.35 19.3 7.06l-8.18 9.65c-1.73-1.26-3.41-2.24-5.04-2.93-1.64-.69-3.38-1.03-5.22-1.03-3.5 0-6.21 1.58-8.14 4.73-1.92 3.16-2.88 7.85-2.88 14.05 0 6.2.97 10.84 2.93 13.91 1.95 3.07 4.73 4.61 8.35 4.61 1.95 0 3.78-.4 5.47-1.21 1.7-.8 3.58-2.01 5.65-3.61l7.75 9.82c-2.41 2.41-5.33 4.41-8.75 5.99-3.41 1.57-7.07 2.36-10.98 2.36-5.91 0-11.03-1.22-15.33-3.66-4.31-2.44-7.64-6.04-10-10.81-2.35-4.77-3.53-10.57-3.53-17.4 0-6.55 1.21-12.19 3.62-16.93s5.77-8.36 10.08-10.86c4.31-2.49 9.27-3.74 14.9-3.74Z" style="fill:#016329" transform="matrix(.34956 0 0 .34956 -398.246 -667.576)"/><path d="M1422.02 2136.86c0-4.74-3.84-8.58-8.58-8.58h-17.75c-4.74 0-8.58 3.84-8.58 8.58v59.96c0 4.74 3.84 8.58 8.58 8.58h38.6c4.3 0 7.94-3.18 8.5-7.45l1.81-13.61c.33-2.45-.42-4.93-2.05-6.79a8.575 8.575 0 0 0-6.46-2.92h-14.07v-37.77Zm-8.58 0v46.35h22.65l-1.8 13.61h-38.6v-59.96h17.75Z" style="fill:#016329" transform="matrix(.34956 0 0 .34956 -398.246 -667.576)"/><path d="M1491.86 2176.64a8.517 8.517 0 0 0 1.15-4.29v-11.97c0-1.55-.41-3-1.13-4.26a8.567 8.567 0 0 0 3.45-5.69l1.81-12.32a8.6 8.6 0 0 0-2-6.86c-1.63-1.89-4-2.97-6.49-2.97h-39.37c-4.74 0-8.59 3.84-8.59 8.58v59.96c0 4.74 3.85 8.58 8.59 8.58h38.93c4.74 0 8.59-3.84 8.59-8.58v-12.41c0-3.43-2.02-6.4-4.94-7.77Zm-3.21-39.78-1.81 12.32h-19.82v11.2h17.4v11.97h-17.4v12.06h21.19v12.41h-38.93v-59.96h39.37Z" style="fill:#016329" transform="matrix(.34956 0 0 .34956 -398.246 -667.576)"/></g></g></svg>