<?xml version="1.0" encoding="UTF-8" standalone="no"?><!DOCTYPE svg PUBLIC "-//W3C//DTD SVG 1.1//EN" "http://www.w3.org/Graphics/SVG/1.1/DTD/svg11.dtd"><svg width="100%" height="100%" viewBox="0 0 150 150" version="1.1" xmlns="http://www.w3.org/2000/svg" xmlns:xlink="http://www.w3.org/1999/xlink" xml:space="preserve" xmlns:serif="http://www.serif.com/" style="fill-rule:evenodd;clip-rule:evenodd;stroke-miterlimit:1.5;"><rect id="_3-60" serif:id="3-60" x="0" y="0" width="150" height="150" style="fill:none;"/><rect x="0" y="0" width="150" height="150" style="fill:none;"/><g><path d="M72.786,12.112L131.022,45.735L131.022,112.98L72.786,146.602L14.55,112.98L14.55,45.735L72.786,12.112Z" style="fill:rgb(3,201,83);"/><path d="M77.214,3.398L135.45,37.02L135.45,104.265L77.214,137.888L18.978,104.265L18.978,37.02L77.214,3.398ZM77.214,6.862L132.45,38.752C132.45,38.752 132.45,102.533 132.45,102.533C132.45,102.533 77.214,134.424 77.214,134.424C77.214,134.424 21.978,102.533 21.978,102.533C21.978,102.533 21.978,38.752 21.978,38.752C21.978,38.752 77.214,6.862 77.214,6.862Z" style="fill:white;"/></g><g><path d="M82.858,83.757L80.641,85.037L68.353,63.754L70.57,62.474L78.171,33.896L79.945,32.872L114.521,95.439L112.747,96.463L82.858,83.757Z" style="fill:none;stroke:rgb(1,99,41);stroke-width:3px;"/><path d="M35.479,94.391L38.433,79.183L68.353,63.754L80.641,85.037L58.914,97.581L44.135,98.92L35.479,94.391Z" style="fill:none;stroke:rgb(1,99,41);stroke-width:3px;"/><path d="M58.914,97.581L61.922,117.128L67.686,113.8L67.782,92.461" style="fill:none;stroke:rgb(1,99,41);stroke-width:3px;"/><path d="M61.702,67.594L73.99,88.877" style="fill:none;stroke:rgb(1,99,41);stroke-width:3px;"/></g></svg>