<?xml version="1.0" encoding="UTF-8" standalone="no"?><!DOCTYPE svg PUBLIC "-//W3C//DTD SVG 1.1//EN" "http://www.w3.org/Graphics/SVG/1.1/DTD/svg11.dtd"><svg width="100%" height="100%" viewBox="0 0 150 150" version="1.1" xmlns="http://www.w3.org/2000/svg" xmlns:xlink="http://www.w3.org/1999/xlink" xml:space="preserve" xmlns:serif="http://www.serif.com/" style="fill-rule:evenodd;clip-rule:evenodd;stroke-miterlimit:1.5;"><rect id="_4-16" serif:id="4-16" x="0" y="0" width="150" height="150" style="fill:none;"/><clipPath id="_clip1"><rect x="0" y="0" width="150" height="150"/></clipPath><g clip-path="url(#_clip1)"><rect x="0" y="0" width="150" height="150" style="fill:none;"/><g><path d="M72.786,2.112L131.022,35.735L131.022,102.98L72.786,136.602L14.55,102.98L14.55,35.735L72.786,2.112Z" style="fill:rgb(3,201,83);"/><path d="M77.214,13.398L135.45,47.02L135.45,114.265L77.214,147.888L18.978,114.265L18.978,47.02L77.214,13.398ZM77.214,16.862L132.45,48.752C132.45,48.752 132.45,112.533 132.45,112.533C132.45,112.533 77.214,144.424 77.214,144.424C77.214,144.424 21.978,112.533 21.978,112.533C21.978,112.533 21.978,48.752 21.978,48.752C21.978,48.752 77.214,16.862 77.214,16.862Z" style="fill:white;"/></g><path d="M43,94L42,105L32,98L27,88L36,76L50,75L54,77.5L45,86L33.826,78.899L35,62L52,59L76,73L82,88L69,94L62,82L83,75L99,89L93,106L70,112L56,102L71,98L102,108L116,100L115,84L94,51L74,38L68,47L82,57L106,54L123,68" style="fill:none;stroke:rgb(1,99,41);stroke-width:3px;"/></g></svg>