<?xml version="1.0" encoding="UTF-8" standalone="no"?><!DOCTYPE svg PUBLIC "-//W3C//DTD SVG 1.1//EN" "http://www.w3.org/Graphics/SVG/1.1/DTD/svg11.dtd"><svg width="100%" height="100%" viewBox="0 0 150 150" version="1.1" xmlns="http://www.w3.org/2000/svg" xmlns:xlink="http://www.w3.org/1999/xlink" xml:space="preserve" xmlns:serif="http://www.serif.com/" style="fill-rule:evenodd;clip-rule:evenodd;stroke-linecap:round;stroke-linejoin:round;stroke-miterlimit:1.5;"><rect id="_4-35" serif:id="4-35" x="0" y="0" width="150" height="150" style="fill:none;"/><clipPath id="_clip1"><rect x="0" y="0" width="150" height="150"/></clipPath><g clip-path="url(#_clip1)"><rect x="-0" y="0" width="150" height="150" style="fill:none;"/><g><path d="M69.286,7.612L127.522,41.235L127.522,108.48L69.286,142.102L11.05,108.48L11.05,41.235L69.286,7.612Z" style="fill:rgb(3,201,83);"/><path d="M80.714,7.898L138.95,41.52L138.95,108.765L80.714,142.388L22.478,108.765L22.478,41.52L80.714,7.898ZM80.714,11.362L135.95,43.252C135.95,43.252 135.95,107.033 135.95,107.033C135.95,107.033 80.714,138.924 80.714,138.924C80.714,138.924 25.478,107.033 25.478,107.033C25.478,107.033 25.478,43.252 25.478,43.252C25.478,43.252 80.714,11.362 80.714,11.362Z" style="fill:white;"/></g><g><path d="M81.707,39.369L94.283,47.753L96.798,59.49L81.707,72.066L63.263,70.389L54.879,57.813L59.909,44.399L81.707,39.369Z" style="fill:none;stroke:rgb(1,99,41);stroke-width:3px;"/><path d="M65.174,43.184L61.586,35.177L51.525,34.338L44.818,46.914L57.637,50.458" style="fill:none;stroke:rgb(1,99,41);stroke-width:3px;"/><path d="M86.251,42.398L88.414,36.015L96.798,33.5L103.505,41.045L103.505,47.753L95.178,51.929" style="fill:none;stroke:rgb(1,99,41);stroke-width:3px;"/><path d="M48.172,102.247L59.071,95.54L63.263,99.732L63.263,111.47L59.071,116.5L49.848,113.146L48.172,102.247Z" style="fill:none;stroke:rgb(1,99,41);stroke-width:3px;"/><path d="M86.251,100.571L93.444,95.54L100.152,99.732L100.99,108.116L96.798,114.823L89.253,116.5L85.061,108.116L86.251,100.571Z" style="fill:none;stroke:rgb(1,99,41);stroke-width:3px;"/><path d="M63.263,107.278L69.97,109.793L80.03,109.793L85.061,108.116" style="fill:none;stroke:rgb(1,99,41);stroke-width:3px;"/><path d="M63.263,99.732L75.838,102.247L86.251,100.571" style="fill:none;stroke:rgb(1,99,41);stroke-width:3px;"/><path d="M54.658,98.256L47.333,95.54L44.818,89.672L50.687,78.773L63.263,70.389" style="fill:none;stroke:rgb(1,99,41);stroke-width:3px;"/><path d="M96.798,97.636L102.667,95.54L105.182,87.995L96.798,77.096L86.251,68.279" style="fill:none;stroke:rgb(1,99,41);stroke-width:3px;"/><path d="M50.687,78.773L57.394,87.157" style="fill:none;stroke:rgb(1,99,41);stroke-width:3px;"/><path d="M60.747,84.322L57.394,87.157L59.071,95.54" style="fill:none;stroke:rgb(1,99,41);stroke-width:3px;"/><path d="M90.091,84.322L94.283,92.187L93.444,95.54" style="fill:none;stroke:rgb(1,99,41);stroke-width:3px;"/><path d="M92.187,88.255L100.087,81.372" style="fill:none;stroke:rgb(1,99,41);stroke-width:3px;"/></g></g></svg>