<?xml version="1.0" encoding="UTF-8" standalone="no"?><!DOCTYPE svg PUBLIC "-//W3C//DTD SVG 1.1//EN" "http://www.w3.org/Graphics/SVG/1.1/DTD/svg11.dtd"><svg width="100%" height="100%" viewBox="0 0 150 150" version="1.1" xmlns="http://www.w3.org/2000/svg" xmlns:xlink="http://www.w3.org/1999/xlink" xml:space="preserve" xmlns:serif="http://www.serif.com/" style="fill-rule:evenodd;clip-rule:evenodd;stroke-miterlimit:1.5;"><rect id="_4-67" serif:id="4-67" x="0" y="0" width="150" height="150" style="fill:none;"/><rect x="0" y="0" width="150" height="150" style="fill:none;"/><g><path d="M75,7.755L133.236,41.378L133.236,108.622L75,142.245L16.764,108.622L16.764,41.378L75,7.755Z" style="fill:rgb(3,201,83);"/><path d="M69.429,9.041L127.664,42.663L127.664,109.908L69.429,143.531L11.193,109.908L11.193,42.663L69.429,9.041ZM69.429,12.505L124.664,44.395C124.664,44.395 124.664,108.176 124.664,108.176C124.664,108.176 69.429,140.067 69.429,140.067C69.429,140.067 14.193,108.176 14.193,108.176C14.193,108.176 14.193,44.395 14.193,44.395C14.193,44.395 69.429,12.505 69.429,12.505Z" style="fill:white;"/></g><g><path d="M43.932,77.286L95.214,77.286L104.214,80.643L102.214,104.643L43.318,106.643L40.214,94.643L43.932,77.286Z" style="fill:none;stroke:rgb(1,99,41);stroke-width:3px;"/><path d="M40.214,94.643L53.214,88.643L58.214,93.643L67.214,88.643L78.214,94.643L87.214,90.643L95.214,95.643L103.271,91.964" style="fill:none;stroke:rgb(1,99,41);stroke-width:3px;"/><path d="M56.214,76.643L53.214,59.643L58.214,52.643L76.214,53.643L78.214,46.643L72.214,44.643L68.214,44.643L68.037,53.189" style="fill:none;stroke:rgb(1,99,41);stroke-width:3px;"/><path d="M72.214,44.643L90.214,44.643L95.214,47.643L92.214,77.286" style="fill:none;stroke:rgb(1,99,41);stroke-width:3px;"/><path d="M76.214,53.643L75.214,77.286" style="fill:none;stroke:rgb(1,99,41);stroke-width:3px;"/></g></svg>