<?xml version="1.0" encoding="UTF-8" standalone="no"?><!DOCTYPE svg PUBLIC "-//W3C//DTD SVG 1.1//EN" "http://www.w3.org/Graphics/SVG/1.1/DTD/svg11.dtd"><svg width="100%" height="100%" viewBox="0 0 150 150" version="1.1" xmlns="http://www.w3.org/2000/svg" xmlns:xlink="http://www.w3.org/1999/xlink" xml:space="preserve" xmlns:serif="http://www.serif.com/" style="fill-rule:evenodd;clip-rule:evenodd;stroke-miterlimit:1.5;"><rect id="_5-22" serif:id="5-22" x="0" y="0" width="150" height="150" style="fill:none;"/><clipPath id="_clip1"><rect x="0" y="0" width="150" height="150"/></clipPath><g clip-path="url(#_clip1)"><rect x="0" y="0" width="150" height="150" style="fill:none;"/><g><path d="M77.786,2.112L136.022,35.735L136.022,102.98L77.786,136.602L19.55,102.98L19.55,35.735L77.786,2.112Z" style="fill:rgb(3,201,83);"/><path d="M72.214,13.398L130.45,47.02L130.45,114.265L72.214,147.888L13.978,114.265L13.978,47.02L72.214,13.398ZM72.214,16.862L127.45,48.752C127.45,48.752 127.45,112.533 127.45,112.533C127.45,112.533 72.214,144.424 72.214,144.424C72.214,144.424 16.978,112.533 16.978,112.533C16.978,112.533 16.978,48.752 16.978,48.752C16.978,48.752 72.214,16.862 72.214,16.862Z" style="fill:white;"/></g><g><g><path d="M58.682,66.692L50.752,64.427L48.108,66.692L42.822,68.203L39.801,63.671L42.822,59.14L45.842,59.895" style="fill:none;stroke:rgb(1,99,41);stroke-width:3px;"/><path d="M42.822,59.14L39.045,56.874L39.801,50.077L47.353,46.301L52.262,54.609" style="fill:none;stroke:rgb(1,99,41);stroke-width:3px;"/><path d="M50.752,52.052L54.905,47.812L58.682,48.567L60.947,52.721L59.437,57.63L56.416,57.63L63.213,64.427" style="fill:none;stroke:rgb(1,99,41);stroke-width:3px;"/></g><g><path d="M91.318,83.308L99.248,85.573L101.892,83.308L107.178,81.797L110.199,86.329L107.178,90.86L104.158,90.105" style="fill:none;stroke:rgb(1,99,41);stroke-width:3px;"/><path d="M107.178,90.86L110.955,93.126L110.199,99.923L102.647,103.699L97.738,95.391" style="fill:none;stroke:rgb(1,99,41);stroke-width:3px;"/><path d="M99.248,97.948L95.095,102.188L91.318,101.433L89.053,97.279L90.563,92.37L93.584,92.37L86.787,85.573" style="fill:none;stroke:rgb(1,99,41);stroke-width:3px;"/></g><g><path d="M88.248,56.388L92.489,49.314L90.985,46.175L90.894,40.677L96.053,38.932L99.648,43.023L98.137,45.745" style="fill:none;stroke:rgb(1,99,41);stroke-width:3px;"/><path d="M99.648,43.023L102.814,39.962L109.184,42.45L110.877,50.723L101.582,53.314" style="fill:none;stroke:rgb(1,99,41);stroke-width:3px;"/><path d="M104.442,52.517L107.463,57.627L105.756,61.079L101.157,62.192L96.807,59.463L97.588,56.545L89.264,61.351" style="fill:none;stroke:rgb(1,99,41);stroke-width:3px;"/></g><g><path d="M62.752,88.612L58.511,95.686L60.015,98.825L60.106,104.323L54.947,106.068L51.352,101.977L52.863,99.255" style="fill:none;stroke:rgb(1,99,41);stroke-width:3px;"/><path d="M51.352,101.977L48.186,105.038L41.816,102.55L40.123,94.277L49.418,91.686" style="fill:none;stroke:rgb(1,99,41);stroke-width:3px;"/><path d="M46.558,92.483L43.537,87.373L45.244,83.921L49.843,82.808L54.193,85.537L53.412,88.455L61.736,83.649" style="fill:none;stroke:rgb(1,99,41);stroke-width:3px;"/></g><path d="M79.828,56.119L78.318,69.713L92.667,68.203" style="fill:none;stroke:rgb(1,99,41);stroke-width:3px;"/><path d="M78.318,85.573L78.318,74.245L92.667,72.465" style="fill:none;stroke:rgb(1,99,41);stroke-width:3px;"/><path d="M76.214,56.119L73.031,69.713L62.458,69.713" style="fill:none;stroke:rgb(1,99,41);stroke-width:3px;"/><path d="M62.458,75L73.031,75L73.031,85.573" style="fill:none;stroke:rgb(1,99,41);stroke-width:3px;"/></g></g></svg>