<?xml version="1.0" encoding="UTF-8" standalone="no"?><!DOCTYPE svg PUBLIC "-//W3C//DTD SVG 1.1//EN" "http://www.w3.org/Graphics/SVG/1.1/DTD/svg11.dtd"><svg width="100%" height="100%" viewBox="0 0 150 150" version="1.1" xmlns="http://www.w3.org/2000/svg" xmlns:xlink="http://www.w3.org/1999/xlink" xml:space="preserve" xmlns:serif="http://www.serif.com/" style="fill-rule:evenodd;clip-rule:evenodd;stroke-miterlimit:1.5;"><rect id="_5-52" serif:id="5-52" x="0" y="0" width="150" height="150" style="fill:none;"/><rect x="0" y="0" width="150" height="150" style="fill:none;"/><g><path d="M77.786,12.112L136.022,45.735L136.022,112.98L77.786,146.602L19.55,112.98L19.55,45.735L77.786,12.112Z" style="fill:rgb(3,201,83);"/><path d="M72.214,3.398L130.45,37.02L130.45,104.265L72.214,137.888L13.978,104.265L13.978,37.02L72.214,3.398ZM72.214,6.862L127.45,38.752C127.45,38.752 127.45,102.533 127.45,102.533C127.45,102.533 72.214,134.424 72.214,134.424C72.214,134.424 16.978,102.533 16.978,102.533C16.978,102.533 16.978,38.752 16.978,38.752C16.978,38.752 72.214,6.862 72.214,6.862Z" style="fill:white;"/></g><g><path d="M48.943,89.792L37.971,101.978L43.261,105.152L63.362,111.5L96.159,109.384L112.029,103.036L104.623,93.514L99.333,66.007L83.464,57.543L75.227,58.601L71.826,56.486L66.536,57.543L63.362,60.717L48.551,62.833L46.435,79.761L51.725,100.92" style="fill:none;stroke:rgb(1,99,41);stroke-width:3px;"/><path d="M75.227,58.601L69.71,71.297L61.246,76.587L64.42,67.065L75.227,58.601L64.42,38.5L75,42.732L83.464,38.5L83.464,44.848L92.986,41.674L101.449,51.196L92.986,50.138L83.464,57.543L89.812,66.007L94.043,73.413L88.754,75.529L85.58,68.123L83.464,57.543" style="fill:none;stroke:rgb(1,99,41);stroke-width:3px;"/><path d="M61.246,83.993L59.13,96.688" style="fill:none;stroke:rgb(1,99,41);stroke-width:3px;"/><path d="M82.406,103.036L92.986,86.109" style="fill:none;stroke:rgb(1,99,41);stroke-width:3px;"/></g></svg>