<svg viewBox="0 0 150 150" xmlns="http://www.w3.org/2000/svg" xml:space="preserve" style="fill-rule:evenodd;clip-rule:evenodd;stroke-linejoin:round;stroke-miterlimit:2"><path style="fill:none" d="M0 0h150v150H0z"/><clipPath id="a"><path d="M0 0h150v150H0z"/></clipPath><g clip-path="url(#a)"><path style="fill:none" d="M0 0h150v150H0z"/><path d="m82.786 7.112 58.236 33.623v67.245l-58.236 33.622L24.55 107.98V40.735L82.786 7.112Z" style="fill:#03c953"/><path d="m73.887 12.25 51.563 29.77v67.245L76.113 137.75 24.55 107.98V40.735L73.887 12.25Z" style="fill:none"/><clipPath id="b"><path d="m73.887 12.25 51.563 29.77v67.245L76.113 137.75 24.55 107.98V40.735L73.887 12.25Z"/></clipPath><g clip-path="url(#b)"><path d="M39.078 87.772c-1.732 0-3.321-.374-4.768-1.121a12.223 12.223 0 0 1-3.753-2.988 14.08 14.08 0 0 1-2.455-4.198 13.367 13.367 0 0 1-.871-4.714c0-1.542.267-3.054.8-4.536a13.138 13.138 0 0 1 2.348-4.056 11.393 11.393 0 0 1 3.789-2.917c1.494-.723 3.19-1.085 5.087-1.085h14.307v2.883H43.277c-1.341.018-2.532.303-3.574.852a8.306 8.306 0 0 0-2.722 2.277 10.053 10.053 0 0 0-1.654 3.184 11.774 11.774 0 0 0-.551 3.54c0 1.305.219 2.561.658 3.771a10.367 10.367 0 0 0 1.832 3.202 8.937 8.937 0 0 0 2.775 2.206 7.524 7.524 0 0 0 3.382.817h10.139v2.883H39.078Z" style="fill:#03c953"/><path d="M43.563 59.157h-4.308c-2.386 0-4.515.475-6.394 1.385-1.884.912-3.473 2.141-4.773 3.681h-.001a16.127 16.127 0 0 0-2.879 4.976 16.276 16.276 0 0 0-.977 5.552c0 1.943.351 3.865 1.062 5.765a17.018 17.018 0 0 0 2.976 5.087 15.199 15.199 0 0 0 4.665 3.714c1.865.963 3.912 1.455 6.144 1.455h17.484v-8.883H43.445a4.559 4.559 0 0 1-2.038-.488l-.001-.001a5.95 5.95 0 0 1-1.85-1.472 7.424 7.424 0 0 1-1.302-2.287 7.986 7.986 0 0 1-.478-2.748c0-.886.139-1.767.414-2.644a7.1 7.1 0 0 1 1.162-2.242 5.35 5.35 0 0 1 1.75-1.461c.637-.336 1.368-.491 2.184-.506h13.276v-8.883H43.668v.019a.232.232 0 0 0-.091-.019h-.014Zm-4.485 28.615c-1.732 0-3.321-.374-4.768-1.121a12.223 12.223 0 0 1-3.753-2.988 14.08 14.08 0 0 1-2.455-4.198 13.367 13.367 0 0 1-.871-4.714c0-1.542.267-3.054.8-4.536a13.138 13.138 0 0 1 2.348-4.056 11.393 11.393 0 0 1 3.789-2.917c1.494-.723 3.19-1.085 5.087-1.085h14.307v2.883H43.277c-1.341.018-2.532.303-3.574.852a8.306 8.306 0 0 0-2.722 2.277 10.053 10.053 0 0 0-1.654 3.184 11.774 11.774 0 0 0-.551 3.54c0 1.305.219 2.561.658 3.771a10.367 10.367 0 0 0 1.832 3.202 8.937 8.937 0 0 0 2.775 2.206 7.524 7.524 0 0 0 3.382.817h10.139v2.883H39.078Z" style="fill:#016329"/><path d="M18.437 117.728c.892-.004 1.68-.229 2.362-.676.688-.451 1.275-1.239 1.761-2.366.487-1.127.872-2.698 1.156-4.714.285-2.016.475-4.589.57-7.72l.213-7.044h41.925v25.259h-3.202v-18.283H27.487l-.142.886c-.119 3.439-.374 6.292-.765 8.556-.391 2.265-.948 4.044-1.672 5.337-.723 1.292-1.619 2.211-2.686 2.757-1.067.546-2.336.818-3.806.818H13.05v-2.81h5.387Z" style="fill:#03c953"/><path d="M30.253 105.184h29.969v18.283h9.202V92.208H21.589l-.302 9.953c-.091 2.997-.269 5.461-.541 7.392-.238 1.684-.534 3.003-.94 3.944-.203.47-.364.857-.651 1.045-.209.137-.455.184-.728.186H10.05v8.81h8.366c2 0 3.72-.405 5.172-1.147 1.549-.792 2.888-2.087 3.938-3.963.854-1.527 1.548-3.616 2.011-6.291.331-1.917.572-4.234.716-6.953Zm-11.816 12.544c.892-.004 1.68-.229 2.362-.676.688-.451 1.275-1.239 1.761-2.366.487-1.127.872-2.698 1.156-4.714.285-2.016.475-4.589.57-7.72l.213-7.044h41.925v25.259h-3.202v-18.283H27.487l-.142.886c-.119 3.439-.374 6.292-.765 8.556-.391 2.265-.948 4.044-1.672 5.337-.723 1.292-1.619 2.211-2.686 2.757-1.067.546-2.336.818-3.806.818H13.05v-2.81h5.387Z" style="fill:#016329"/><path d="M66.15 29.462v25.259h-3.202V43.229H36.649v11.492h-7.136V29.462h7.136v10.921h26.299V29.462h3.202Z" style="fill:#03c953"/><path d="M69.15 57.721V26.462h-9.202v10.921H39.649V26.462H26.513v31.259h13.136V46.229h20.299v11.492h9.202Zm-3-28.259v25.259h-3.202V43.229H36.649v11.492h-7.136V29.462h7.136v10.921h26.299V29.462h3.202Z" style="fill:#016329"/><path d="M113.769 47.745v6.976H71.844V29.462h41.605v6.975H75.046v4.053h36.624v2.669H75.046v4.586h38.723Z" style="fill:#03c953"/><path d="M114.67 44.745v-5.308h1.779V26.462H68.844v31.259h47.925V44.745h-2.099Zm-.901 3v6.976H71.844V29.462h41.605v6.975H75.046v4.053h36.624v2.669H75.046v4.586h38.723Z" style="fill:#016329"/><path d="M72.118 120.503V95.244h3.202v10.921h3.379l8.325-10.921h11.959l-9.392 12.238 10.032 13.021H87.451l-8.681-11.42h-3.45v11.42h-3.202Z" style="fill:#03c953"/><path d="M78.32 101.715v-9.471h-9.202v31.259h9.202v-10.056l7.643 10.056h13.66l2.377-4.831-8.625-11.194 7.988-10.408-2.38-4.826H85.539l-7.219 9.471Zm-6.202 18.788V95.244h3.202v10.921h3.379l8.325-10.921h11.959l-9.392 12.238 10.032 13.021H87.451l-8.681-11.42h-3.45v11.42h-3.202Z" style="fill:#016329"/><path d="M115.67 95.244h10.963l10.317 25.259h-11.674l-2.834-7.4h-10.864l-2.845 7.4h-3.416l10.353-25.259Zm5.82 15.368-4.468-11.668-4.487 11.668h8.955Z" style="fill:#03c953"/><path d="M128.648 92.244h-14.99l-11.116 27.121 2.775 4.138h5.477l2.844-7.4h6.741l2.833 7.4h13.738l2.777-4.135-11.079-27.124Zm-12.978 3h10.963l10.317 25.259h-11.674l-2.834-7.4h-10.864l-2.845 7.4h-3.416l10.353-25.259Zm5.82 15.368-4.468-11.668-4.487 11.668h8.955Zm-4.361-3h-.226l.113-.294.113.294Z" style="fill:#016329"/><path d="M106.935 62.335h6.834l10.317 25.259h-7.545l-2.833-7.4h-10.865l-2.845 7.4h-3.415l10.352-25.259Zm5.82 15.369-4.468-11.669-4.487 11.669h8.955Z" style="fill:#03c953"/><path d="M115.784 59.335h-10.861L93.807 86.456l2.776 4.138h5.476l2.845-7.4h6.74l2.833 7.4h9.609l2.777-4.134-11.079-27.125Zm-8.849 3h6.834l10.317 25.259h-7.545l-2.833-7.4h-10.865l-2.845 7.4h-3.415l10.352-25.259Zm5.82 15.369-4.468-11.669-4.487 11.669h8.955Zm-4.361-3h-.226l.113-.295.113.295Z" style="fill:#016329"/><path d="M90.889 81.084c0 1.304-.332 2.442-.996 3.414-.664.973-1.56 1.732-2.686 2.278-1.127.545-2.366.818-3.718.818H59.111V62.335h24.947c1.186 0 2.212.314 3.078.943a6.2 6.2 0 0 1 1.992 2.419 7.16 7.16 0 0 1 .694 3.077c0 1.233-.315 2.39-.943 3.469-.629 1.079-1.524 1.879-2.686 2.401 1.446.427 2.591 1.216 3.433 2.366.842 1.15 1.263 2.508 1.263 4.074Zm-7.367-.57c0-.782-.172-1.506-.516-2.17a4.331 4.331 0 0 0-1.388-1.601c-.58-.403-1.25-.605-2.009-.605H62.313v8.681H79.36c.782 0 1.488-.202 2.116-.605a4.437 4.437 0 0 0 1.494-1.583 4.236 4.236 0 0 0 .552-2.117ZM62.313 65.11v8.431h16.299c.759 0 1.429-.19 2.011-.569a4.117 4.117 0 0 0 1.387-1.53c.344-.64.516-1.34.516-2.099 0-.806-.16-1.524-.481-2.152a3.961 3.961 0 0 0-1.316-1.512 3.298 3.298 0 0 0-1.903-.569H62.313Z" style="fill:#03c953"/><path d="M93.889 81.084c0-2.25-.633-4.193-1.842-5.846a9.606 9.606 0 0 0-.864-1.023c.1-.15.196-.304.288-.463a9.724 9.724 0 0 0 1.351-4.978c0-1.51-.325-2.961-.979-4.353a9.147 9.147 0 0 0-2.945-3.571c-1.364-.991-2.971-1.515-4.84-1.515H56.111v31.259h27.378c1.828 0 3.501-.381 5.025-1.118 1.621-.785 2.901-1.886 3.856-3.286.995-1.456 1.519-3.153 1.519-5.106Zm-3 0c0 1.304-.332 2.442-.996 3.414-.664.973-1.56 1.732-2.686 2.278-1.127.545-2.366.818-3.718.818H59.111V62.335h24.947c1.186 0 2.212.314 3.078.943a6.2 6.2 0 0 1 1.992 2.419 7.16 7.16 0 0 1 .694 3.077c0 1.233-.315 2.39-.943 3.469-.629 1.079-1.524 1.879-2.686 2.401 1.446.427 2.591 1.216 3.433 2.366.842 1.15 1.263 2.508 1.263 4.074Zm-7.367-.57c0-.782-.172-1.506-.516-2.17a4.331 4.331 0 0 0-1.388-1.601c-.58-.403-1.25-.605-2.009-.605H62.313v8.681H79.36c.782 0 1.488-.202 2.116-.605a4.437 4.437 0 0 0 1.494-1.583 4.236 4.236 0 0 0 .552-2.117Zm-3 0c0 .231-.054.446-.165.644-.123.219-.29.396-.501.531a.894.894 0 0 1-.496.13H65.313v-2.681h14.296c.11 0 .213.01.298.069h.001c.185.129.325.305.434.517.125.241.18.506.18.79ZM62.313 65.11v8.431h16.299c.759 0 1.429-.19 2.011-.569a4.117 4.117 0 0 0 1.387-1.53c.344-.64.516-1.34.516-2.099 0-.806-.16-1.524-.481-2.152a3.961 3.961 0 0 0-1.316-1.512 3.298 3.298 0 0 0-1.903-.569H62.313Zm3 3h13.513c.078 0 .152.006.214.048l.001.001c.143.097.249.232.331.393.117.23.154.497.154.791 0 .245-.048.473-.159.68-.097.181-.221.33-.385.437-.105.069-.232.081-.37.081H65.313V68.11Z" style="fill:#016329"/></g><path d="M67.214 8.398 125.45 42.02v67.245l-58.236 33.623-58.236-33.623V42.02L67.214 8.398Zm0 3.464 55.236 31.89v63.781l-55.236 31.891-55.236-31.891V43.752l55.236-31.89Z" style="fill:#fff"/></g></svg>