<?xml version="1.0" encoding="UTF-8" standalone="no"?><!DOCTYPE svg PUBLIC "-//W3C//DTD SVG 1.1//EN" "http://www.w3.org/Graphics/SVG/1.1/DTD/svg11.dtd"><svg width="100%" height="100%" viewBox="0 0 150 150" version="1.1" xmlns="http://www.w3.org/2000/svg" xmlns:xlink="http://www.w3.org/1999/xlink" xml:space="preserve" xmlns:serif="http://www.serif.com/" style="fill-rule:evenodd;clip-rule:evenodd;stroke-linecap:round;stroke-miterlimit:1.5;"><rect id="_6-9" serif:id="6-9" x="0" y="0" width="150" height="150" style="fill:none;"/><clipPath id="_clip1"><rect x="0" y="0" width="150" height="150"/></clipPath><g clip-path="url(#_clip1)"><rect x="0" y="0" width="150" height="150" style="fill:none;"/><g><g><path d="M82.786,7.112L141.022,40.735L141.022,107.98L82.786,141.602L24.55,107.98L24.55,40.735L82.786,7.112Z" style="fill:rgb(3,201,83);"/><path d="M73.887,12.25L125.45,42.02L125.45,109.265L76.113,137.75L24.55,107.98L24.55,40.735L73.887,12.25Z" style="fill:none;"/><clipPath id="_clip2"><path d="M73.887,12.25L125.45,42.02L125.45,109.265L76.113,137.75L24.55,107.98L24.55,40.735L73.887,12.25Z"/></clipPath><g clip-path="url(#_clip2)"><g><g><path d="M100.481,72.989L96.788,92.815L85.185,112.553L76.035,117.199L61.736,111.116L53.769,94.538L49.709,74.433" style="fill:rgb(3,201,83);stroke:rgb(1,99,41);stroke-width:3px;"/><path d="M49.92,68.27L54.511,42.67L60.379,36.536L83.318,32.801L97.455,40.937L101.856,65.609L101.358,68.278" style="fill:rgb(3,201,83);stroke:rgb(1,99,41);stroke-width:3px;"/><path d="M49.92,68.27L61.965,66.989L73.673,68.082L86.929,66.989L101.358,68.278L101.856,68.683L101.856,73.435L100.481,72.989L98.073,81.452L92.555,83.541L83.87,83.541L80.046,79.881L76.222,74.2L73.673,74.364L70.596,80.263L63.44,83.759L53.935,82.721L50.439,75L48.144,73.217L48.144,68.737L49.92,68.27Z" style="fill:rgb(3,201,83);"/><path d="M75.162,77.997L77.738,81.824L82.665,86.541L93.104,86.541L100.545,83.724L103.112,74.702L104.856,73.435L104.856,67.257L102.541,65.371L86.939,63.978L73.689,65.07C73.689,65.07 61.945,63.974 61.945,63.974L49.376,65.311L45.144,66.424L45.144,74.684L48.012,76.913C48.012,76.913 51.908,85.518 51.908,85.518L63.977,86.836L72.799,82.526L75.162,77.997ZM49.92,68.27L61.965,66.989L73.673,68.082L86.929,66.989L101.358,68.278L101.856,68.683L101.856,73.435L100.481,72.989L98.073,81.452L92.555,83.541L83.87,83.541L80.046,79.881L76.222,74.2L73.673,74.364L70.596,80.263L63.44,83.759L53.935,82.721L50.439,75L48.144,73.217L48.144,68.737L49.92,68.27Z" style="fill:rgb(1,99,41);"/></g></g></g><path d="M67.214,8.398L125.45,42.02L125.45,109.265L67.214,142.888L8.978,109.265L8.978,42.02L67.214,8.398ZM67.214,11.862L122.45,43.752C122.45,43.752 122.45,107.533 122.45,107.533C122.45,107.533 67.214,139.424 67.214,139.424C67.214,139.424 11.978,107.533 11.978,107.533C11.978,107.533 11.978,43.752 11.978,43.752C11.978,43.752 67.214,11.862 67.214,11.862Z" style="fill:white;"/></g></g></g></svg>