<svg viewBox="0 0 1920 1080" xmlns="http://www.w3.org/2000/svg" xml:space="preserve" style="fill-rule:evenodd;clip-rule:evenodd;stroke-linecap:round;stroke-linejoin:round;stroke-miterlimit:1.5"><path d="M505.014 607.025a5.097 5.097 0 0 0 6.628-2.319l14.562-28.368a8.579 8.579 0 0 0 .69-6.007l-.519-2.072a1.767 1.767 0 0 1 .071-1.08c2.525-6.381 4.677-12.546 6.437-18.484a.39.39 0 0 1 .453-.27l.174.037a.699.699 0 0 0 .767-.367l1.165-2.308a2.054 2.054 0 0 0-.825-2.717 130.16 130.16 0 0 0-5.564-2.885 2.056 2.056 0 0 0-2.697.892l-1.214 2.282a.698.698 0 0 0 .141.838l.131.12a.39.39 0 0 1 .04.527c-3.838 4.86-7.636 10.171-11.396 15.913a1.762 1.762 0 0 1-.841.68l-1.992.77a8.577 8.577 0 0 0-4.512 4.026l-14.79 28.25a5.095 5.095 0 0 0 1.924 6.752c2.588 1.528 8.427 4.555 11.167 5.79Z" style="fill:none;stroke:#000;stroke-width:3px"/></svg>