<svg viewBox="0 0 1920 1080" xmlns="http://www.w3.org/2000/svg" xml:space="preserve" style="fill-rule:evenodd;clip-rule:evenodd;stroke-linecap:round;stroke-linejoin:round;stroke-miterlimit:1.5"><path d="M599.196 645.764a5.096 5.096 0 0 0 4.714 5.204l31.798 2.384a8.587 8.587 0 0 0 5.802-1.701l1.707-1.284a1.773 1.773 0 0 1 1.022-.355c6.862-.155 13.378-.571 19.533-1.258a.388.388 0 0 1 .425.313l.034.174c.059.31.321.542.636.563l2.579.177a2.057 2.057 0 0 0 2.183-1.818c.163-1.427.43-4.812.493-6.248a2.054 2.054 0 0 0-1.87-2.137l-2.574-.231a.696.696 0 0 0-.717.456l-.061.167a.389.389 0 0 1-.469.242c-5.971-1.645-12.341-3.079-19.093-4.31a1.772 1.772 0 0 1-.954-.51l-1.483-1.537a8.593 8.593 0 0 0-5.464-2.591l-31.778-2.639a5.098 5.098 0 0 0-5.473 4.399c-.401 2.979-.919 9.535-.99 12.54Z" style="fill:none;stroke:#000;stroke-width:3px"/></svg>