<svg viewBox="0 0 1920 1080" xmlns="http://www.w3.org/2000/svg" xml:space="preserve" style="fill-rule:evenodd;clip-rule:evenodd;stroke-linecap:round;stroke-linejoin:round;stroke-miterlimit:1.5"><path d="M676.643 664.783a5.096 5.096 0 0 0 .913 6.962l24.785 20.062a8.585 8.585 0 0 0 5.739 1.905l2.134-.084c.37-.015.734.087 1.042.291 5.73 3.778 11.324 7.146 16.775 10.084a.39.39 0 0 1 .172.5l-.072.162a.697.697 0 0 0 .203.825l2.02 1.614a2.056 2.056 0 0 0 2.829-.252 129.81 129.81 0 0 0 3.963-4.856 2.056 2.056 0 0 0-.321-2.822l-1.985-1.655a.697.697 0 0 0-.85-.033l-.144.103a.39.39 0 0 1-.524-.068c-3.972-4.752-8.393-9.557-13.243-14.413a1.771 1.771 0 0 1-.494-.963l-.345-2.107a8.586 8.586 0 0 0-3.017-5.241l-24.624-20.26a5.095 5.095 0 0 0-7.003.501c-2.026 2.221-6.184 7.316-7.953 9.745Z" style="fill:none;stroke:#000;stroke-width:3px"/></svg>