<svg viewBox="0 0 1920 1080" xmlns="http://www.w3.org/2000/svg" xml:space="preserve" style="fill-rule:evenodd;clip-rule:evenodd;stroke-linecap:round;stroke-linejoin:round;stroke-miterlimit:1.5"><path d="M470.767 595.293a5.097 5.097 0 0 0 4.817-5.109l-.128-31.887a8.59 8.59 0 0 0-2.153-5.651l-1.414-1.6a1.761 1.761 0 0 1-.434-.991c-.696-6.828-1.623-13.291-2.793-19.373a.387.387 0 0 1 .278-.448l.171-.048a.695.695 0 0 0 .511-.679l-.027-2.584a2.055 2.055 0 0 0-1.983-2.033c-1.436-.05-4.832-.05-6.268 0a2.056 2.056 0 0 0-1.984 2.033l-.027 2.584a.697.697 0 0 0 .512.679l.171.048a.39.39 0 0 1 .278.448c-1.17 6.082-2.098 12.545-2.793 19.373a1.761 1.761 0 0 1-.434.991l-1.414 1.6a8.584 8.584 0 0 0-2.153 5.651l-.128 31.887a5.096 5.096 0 0 0 4.817 5.109c3.001.165 9.577.165 12.578 0Z" style="fill:none;stroke:#000;stroke-width:3px"/></svg>