<svg viewBox="0 0 1920 1080" xmlns="http://www.w3.org/2000/svg" xml:space="preserve" style="fill-rule:evenodd;clip-rule:evenodd;stroke-linecap:round;stroke-linejoin:round;stroke-miterlimit:1.5"><path d="M540.198 623.071a5.097 5.097 0 0 0 6.452 2.772l29.909-11.056a8.585 8.585 0 0 0 4.57-3.96l1.018-1.877a1.76 1.76 0 0 1 .782-.747c6.175-2.995 11.928-6.083 17.24-9.268a.389.389 0 0 1 .517.107l.103.145a.698.698 0 0 0 .813.248l2.418-.912a2.057 2.057 0 0 0 1.23-2.561 129.344 129.344 0 0 0-2.15-5.887 2.055 2.055 0 0 0-2.59-1.166l-2.437.86a.696.696 0 0 0-.462.713l.014.177a.388.388 0 0 1-.326.416c-6.114.986-12.503 2.332-19.155 4.02a1.766 1.766 0 0 1-1.08-.068l-1.988-.779a8.58 8.58 0 0 0-6.047-.084l-29.997 10.815a5.096 5.096 0 0 0-3.147 6.277c.874 2.875 3.129 9.053 4.313 11.815Z" style="fill:none;stroke:#000;stroke-width:3px"/></svg>