<svg viewBox="0 0 1920 1080" xmlns="http://www.w3.org/2000/svg" xml:space="preserve" style="fill-rule:evenodd;clip-rule:evenodd;stroke-linecap:round;stroke-linejoin:round;stroke-miterlimit:1.5"><path d="M713.291 567.739a1.658 1.658 0 0 0 2.295-.471l10.818-16.411a1.654 1.654 0 0 0-.471-2.295l-1.807-1.191a1.656 1.656 0 0 0-2.295.471l-10.818 16.411a1.658 1.658 0 0 0 .471 2.295l1.807 1.191Z" style="fill:none;stroke:#000;stroke-width:3px"/><path d="m724.812 553.272 5.871 2.948a2.354 2.354 0 0 1 .908 3.405l-2.526 3.818a2.357 2.357 0 0 1-3.489.496l-4.998-4.243M712.106 543.897c-.47-.873-1.41-2.618-1.592-4.061-.229-1.826.455-4.609.213-6.896-.256-2.424-.715-5.299-1.75-7.646-1.036-2.347-2.709-4.877-4.463-6.434-1.676-1.489-4.132-4.051-6.063-2.911-4.173 2.464-15.954 13.838-18.974 17.694-1.133 1.446.162 4.054.85 5.445.646 1.307 2.07 2.08 3.278 2.898 1.438.973 3.607 2.036 5.352 2.942a131.29 131.29 0 0 0 5.116 2.497c1.92.894 4.908 2.209 6.402 2.867" style="fill:none;stroke:#000;stroke-width:3px"/><path d="M724.354 547.52c.031-.736.094-2.207-.284-3.144-.379-.937-1.178-1.794-1.987-2.477-.868-.732-2.101-1.362-3.221-1.916-1.905-.941-6.107-2.802-8.208-3.733M711.766 566.734c-.712-.078-2.138-.235-3.189-.453-1.092-.227-2.287-.478-3.366-.909-1.19-.476-2.629-1.155-3.773-1.947-1.143-.791-2.257-1.689-3.089-2.804-.937-1.254-1.896-3.052-2.531-4.72-.638-1.674-.986-3.904-1.296-5.325-.231-1.06-.454-2.491-.566-3.206" style="fill:none;stroke:#000;stroke-width:3px"/></svg>