<svg viewBox="0 0 1920 1080" xmlns="http://www.w3.org/2000/svg" xml:space="preserve" style="fill-rule:evenodd;clip-rule:evenodd;stroke-linecap:round;stroke-linejoin:round;stroke-miterlimit:1.5"><path d="M455.184 413.242a1.66 1.66 0 0 0-1.008 2.116c1.416 3.991 5.153 14.534 6.568 18.526a1.66 1.66 0 0 0 2.116 1.008l2.039-.724a1.655 1.655 0 0 0 1.008-2.115l-6.568-18.526a1.657 1.657 0 0 0-2.115-1.008l-2.04.723Z" style="fill:none;stroke:#000;stroke-width:3px"/><path d="m459.778 431.157-5.892 2.905a2.354 2.354 0 0 1-3.263-1.329l-1.523-4.317a2.355 2.355 0 0 1 1.708-3.083l6.399-1.428M474.919 426.674c.979.151 2.939.454 4.199 1.179 1.595.918 3.403 3.142 5.373 4.328 2.088 1.257 4.658 2.626 7.155 3.215 2.496.589 5.523.78 7.824.319 2.198-.44 5.723-.854 5.978-3.081.55-4.815-1.419-21.071-2.674-25.806-.47-1.776-3.332-2.316-4.856-2.606-1.433-.272-2.908.397-4.288.868-1.644.56-3.8 1.65-5.575 2.495a132.76 132.76 0 0 0-5.077 2.576c-1.87.993-4.722 2.583-6.147 3.378" style="fill:none;stroke:#000;stroke-width:3px"/><path d="M464.643 434.259c.568.469 1.704 1.407 2.68 1.67.975.263 2.141.143 3.173-.091 1.107-.251 2.354-.855 3.471-1.415 1.9-.952 5.918-3.181 7.928-4.296M456.906 412.632c.492-.521 1.476-1.564 2.284-2.271.84-.734 1.76-1.536 2.756-2.137 1.097-.662 2.506-1.401 3.827-1.836 1.321-.434 2.709-.781 4.1-.774 1.565.009 3.577.329 5.292.828 1.72.501 3.708 1.567 5.029 2.177.985.455 2.261 1.14 2.898 1.482" style="fill:none;stroke:#000;stroke-width:3px"/></svg>