<svg viewBox="0 0 1920 1080" xmlns="http://www.w3.org/2000/svg" xml:space="preserve" style="fill-rule:evenodd;clip-rule:evenodd;stroke-linecap:round;stroke-linejoin:round;stroke-miterlimit:1.5"><path d="M622.278 449.728a1.655 1.655 0 0 0-.775-2.211l-17.715-8.518a1.658 1.658 0 0 0-2.211.775l-.938 1.95a1.66 1.66 0 0 0 .776 2.211l17.714 8.518a1.656 1.656 0 0 0 2.211-.775l.938-1.95Z" style="fill:none;stroke:#000;stroke-width:3px"/><path d="m606.395 440.252 2.134-6.213a2.357 2.357 0 0 1 3.252-1.356l4.123 1.99a2.357 2.357 0 0 1 .96 3.392l-3.534 5.522M598.811 454.102c-.802.583-2.406 1.749-3.811 2.122-1.779.473-4.629.169-6.862.715-2.368.579-5.156 1.419-7.343 2.76-2.186 1.341-4.469 3.339-5.777 5.286-1.25 1.861-3.459 4.639-2.07 6.399 3.001 3.805 15.853 13.952 20.08 16.428 1.585.929 3.996-.704 5.282-1.573 1.208-.816 1.783-2.33 2.431-3.637.772-1.556 1.534-3.848 2.198-5.699a131.402 131.402 0 0 0 1.787-5.405c.628-2.022 1.531-5.159 1.982-6.728" style="fill:none;stroke:#000;stroke-width:3px"/><path d="M600.757 441.479c-.733.067-2.2.202-3.078.703-.877.501-1.62 1.408-2.187 2.301-.609.959-1.068 2.266-1.466 3.45-.678 2.014-1.958 6.428-2.599 8.634M621.486 451.374c.018.717.055 2.15-.021 3.221-.078 1.113-.166 2.331-.449 3.458-.312 1.243-.791 2.76-1.422 3.999-.631 1.24-1.372 2.464-2.364 3.438-1.117 1.097-2.77 2.288-4.338 3.142-1.574.857-3.736 1.501-5.104 1.999-1.019.371-2.406.784-3.1.99" style="fill:none;stroke:#000;stroke-width:3px"/></svg>