<svg viewBox="0 0 1920 1080" xmlns="http://www.w3.org/2000/svg" xml:space="preserve" style="fill-rule:evenodd;clip-rule:evenodd;stroke-linecap:round;stroke-linejoin:round;stroke-miterlimit:1.5"><path d="M676.974 505.789c.439.018.867-.139 1.191-.436.323-.298.515-.711.534-1.151l.82-19.638a1.653 1.653 0 0 0-1.586-1.725l-2.162-.09a1.658 1.658 0 0 0-1.725 1.586l-.82 19.639a1.653 1.653 0 0 0 1.586 1.724l2.162.091Z" style="fill:none;stroke:#000;stroke-width:3px"/><path d="m679.398 487.454 6.551-.496a2.357 2.357 0 0 1 2.532 2.451l-.199 4.573a2.355 2.355 0 0 1-2.735 2.223l-6.47-1.063M663.678 485.963c-.852-.506-2.557-1.519-3.455-2.662-1.138-1.447-1.985-4.184-3.37-6.02-1.468-1.946-3.342-4.175-5.438-5.653-2.096-1.478-4.833-2.785-7.139-3.217-2.204-.412-5.629-1.343-6.696.628-2.308 4.261-6.548 20.078-7.151 24.939-.227 1.823 2.227 3.392 3.532 4.23 1.228.787 2.846.717 4.303.795 1.734.094 4.14-.112 6.103-.234 1.894-.117 3.784-.296 5.671-.495 2.106-.223 5.345-.634 6.964-.839" style="fill:none;stroke:#000;stroke-width:3px"/><path d="M676.043 482.76c-.352-.647-1.056-1.941-1.863-2.549-.807-.608-1.934-.931-2.978-1.1-1.121-.18-2.503-.085-3.749.017-2.117.174-6.678.743-8.958 1.027M675.149 505.712c-.651.3-1.953.901-2.967 1.255-1.053.368-2.206.768-3.354.954-1.265.205-2.848.364-4.236.275-1.387-.09-2.805-.286-4.092-.813-1.449-.592-3.197-1.639-4.601-2.742-1.409-1.107-2.855-2.838-3.853-3.897-.745-.79-1.672-1.901-2.136-2.457" style="fill:none;stroke:#000;stroke-width:3px"/></svg>