<svg viewBox="0 0 1920 1080" xmlns="http://www.w3.org/2000/svg" xml:space="preserve" style="fill-rule:evenodd;clip-rule:evenodd;stroke-linecap:round;stroke-linejoin:round;stroke-miterlimit:1.5"><path d="M537.003 409.717a1.66 1.66 0 0 0-2.311.389l-11.404 16.009a1.659 1.659 0 0 0 .388 2.311l1.763 1.255a1.658 1.658 0 0 0 2.31-.388l11.405-16.009a1.66 1.66 0 0 0-.389-2.311l-1.762-1.256Z" style="fill:none;stroke:#000;stroke-width:3px"/><path d="m524.966 423.759-5.76-3.159a2.359 2.359 0 0 1-.784-3.435l2.662-3.724a2.35 2.35 0 0 1 1.669-.973 2.352 2.352 0 0 1 1.836.603l4.842 4.421M537.326 433.587c.438.889 1.314 2.668 1.443 4.116.164 1.833-.62 4.589-.461 6.883.168 2.432.522 5.322 1.472 7.705s2.531 4.971 4.227 6.591c1.622 1.548 3.984 4.197 5.954 3.128 4.26-2.311 16.444-13.252 19.602-16.996 1.184-1.405-.015-4.058-.653-5.472-.599-1.33-1.993-2.154-3.171-3.015-1.402-1.025-3.531-2.165-5.242-3.134a131.964 131.964 0 0 0-5.023-2.68c-1.886-.962-4.824-2.385-6.294-3.096" style="fill:none;stroke:#000;stroke-width:3px"/><path d="M525.217 429.523c-.058.735-.175 2.203.17 3.153.344.95 1.112 1.836 1.896 2.547.841.763 2.051 1.437 3.15 2.031 1.87 1.01 6.001 3.022 8.067 4.028M538.491 410.777c.709.104 2.127.312 3.17.568 1.084.266 2.269.56 3.332 1.031 1.171.518 2.585 1.249 3.699 2.081 1.114.832 2.195 1.77 2.986 2.914.891 1.287 1.784 3.118 2.359 4.809.577 1.696.844 3.936 1.103 5.368.192 1.068.363 2.505.449 3.224" style="fill:none;stroke:#000;stroke-width:3px"/></svg>