<svg viewBox="0 0 1920 1080" xmlns="http://www.w3.org/2000/svg" xml:space="preserve" style="fill-rule:evenodd;clip-rule:evenodd;stroke-linecap:round;stroke-linejoin:round;stroke-miterlimit:1.5"><path d="m1374.3 590.306 3.65 8.013.08 1.825 1.67 6.188.63 6.07 8.06-1.23 3.33 4.562 6.9-1.547 2.78-2.182 7.18-.317 5.24-7.339-3.66-6.308 4.41-3.451-2.1-9.441-8.77-7.735-8.05 2.935-6.87-5.395-5.23 8.172-2.38-.436-6.87 7.616Z" style="fill:none;stroke:#000;stroke-width:3px"/><path d="m1377.95 598.319 5.6-3.887 3.88-.595-3.88-10.711M1395.65 580.349l3.69 8.093M1388.39 611.172l6.82-7.577-1.11-8.251M1404.87 602.194l5.29-4.153" style="fill:none;stroke:#000;stroke-width:3px"/></svg>