<svg viewBox="0 0 1920 1080" xmlns="http://www.w3.org/2000/svg" xml:space="preserve" style="fill-rule:evenodd;clip-rule:evenodd;stroke-linecap:round;stroke-linejoin:round;stroke-miterlimit:1.5"><path d="m1248.37 667.188-7.26-4.98-1.01-1.522-4.62-4.441-3.68-4.871-6.26 5.209-5.21-2.188-5.11 4.887-1.26 3.302-5.98 3.977-.7 8.988 6.38 3.519-1.99 5.229 6.67 7.002 11.5 2.102 5.39-6.67 8.66 1.079.27-9.702 2.26-.854 1.95-10.066Z" style="fill:none;stroke:#000;stroke-width:3px"/><path d="m1244.35 678.747-6.78.647-3.68-1.386-1.86 11.241M1220.12 685.74l.75-8.862M1241.56 662.431l-9.67 3.26-3.07 7.736M1222.79 662.179l-6.65 1.023" style="fill:none;stroke:#000;stroke-width:3px"/></svg>