<svg viewBox="0 0 1920 1080" xmlns="http://www.w3.org/2000/svg" xml:space="preserve" style="fill-rule:evenodd;clip-rule:evenodd;stroke-linecap:round;stroke-linejoin:round;stroke-miterlimit:1.5"><path d="m1325.02 630.249 8.43 2.538 1.43 1.143 5.75 2.827 4.98 3.524 4.38-6.867 5.63.502 3.39-6.21.19-3.527 4.49-5.608-2.07-8.775-7.14-1.414.3-5.586-8.48-4.643-11.6 1.493-3.1 7.991-8.58 1.604 2.69 9.324-1.89 1.503 1.2 10.181Z" style="fill:none;stroke:#000;stroke-width:3px"/><path d="m1333.45 632.787.76-6.769 2.12-3.315-10.62-4.138M1331.6 607.637l8.52 2.56M1349.99 633.414l-1.2-10.125-6.93-4.604M1354.11 615.103l.37-6.721" style="fill:none;stroke:#000;stroke-width:3px"/></svg>