<svg viewBox="0 0 1920 1080" xmlns="http://www.w3.org/2000/svg" xml:space="preserve" style="fill-rule:evenodd;clip-rule:evenodd;stroke-linecap:round;stroke-linejoin:round;stroke-miterlimit:1.5"><path d="m1283.54 664.871 7.62-4.412 1.81-.256 5.99-2.26 5.98-1.222-2.01-7.895 4.22-3.76-2.21-6.72-2.44-2.551-1.02-7.115-7.81-4.498-5.92 4.246-3.87-4.047-9.19 3.011-6.84 9.477 3.7 7.73-4.7 7.355 8.64 4.416-.2 2.412 8.25 6.089Z" style="fill:none;stroke:#000;stroke-width:3px"/><path d="m1291.16 660.459-4.41-5.188-.98-3.812-10.28 4.911M1271.55 644.599l7.7-4.459M1302.93 648.826l-8.2-6.054-8.1 1.908M1292.4 633.297l-4.65-4.869" style="fill:none;stroke:#000;stroke-width:3px"/></svg>