<svg viewBox="0 0 1920 1080" xmlns="http://www.w3.org/2000/svg" xml:space="preserve" style="fill-rule:evenodd;clip-rule:evenodd;stroke-linecap:round;stroke-linejoin:round;stroke-miterlimit:1.5"><path d="m1454.01 555.38-8.01 3.649-1.83.08-6.18 1.666-6.07.634 1.23 8.053-4.56 3.332 1.54 6.903 2.18 2.777.32 7.18 7.34 5.236 6.31-3.649 3.45 4.403 9.44-2.103 7.73-8.766-2.93-8.053 5.4-6.863-8.18-5.236.44-2.381-7.62-6.862Z" style="fill:none;stroke:#000;stroke-width:3px"/><path d="m1446 559.029 3.89 5.594.59 3.887 10.71-3.887M1463.97 576.722l-8.09 3.689M1433.15 569.462l7.57 6.823 8.26-1.11M1442.12 585.943l4.16 5.298" style="fill:none;stroke:#000;stroke-width:3px"/></svg>