<svg viewBox="0 0 1920 1080" xmlns="http://www.w3.org/2000/svg" xml:space="preserve" style="fill-rule:evenodd;clip-rule:evenodd;stroke-linecap:round;stroke-linejoin:round;stroke-miterlimit:1.5"><path d="M1445.02 374.585c-.03-.341-.2-.656-.46-.877-.26-.22-.6-.328-.94-.298l-8.55.732a1.292 1.292 0 0 0-1.18 1.396l.23 2.739c.03.341.2.657.46.877.26.221.6.328.94.299l8.56-.732c.34-.03.65-.193.87-.455.22-.262.33-.6.3-.941l-.23-2.74ZM1458.29 439.09l-1.61-18.802-2.92-9.167 1.18-11.154s-.47-5.456-.91-10.538c-.4-4.736-4.57-8.246-9.3-7.841l-8.58.735a8.597 8.597 0 0 0-6.08 3.323 8.554 8.554 0 0 0-1.66 6.73c.52 2.997.97 5.563.97 5.563l-.22 12.81 3.9 10.454-2.26 8.758.98 11.398" style="fill:none;stroke:#000;stroke-width:3px"/><path d="m1439.32 392.29-9.94 5.649 4.88 1.479M1447.86 390.251l.68 7.945M1445.71 407.225l8.05 3.896-6.05 3.046M1437.78 419.149l-4.72 2.054 5.45 4.631M1451.15 425.798l.85 9.813M1440.61 440.602a4.43 4.43 0 1 1-8.83.757" style="fill:none;stroke:#000;stroke-width:3px"/><path d="M1449.45 439.846a4.435 4.435 0 1 1-8.84.756M1458.29 439.09c.2 2.438-1.61 4.587-4.04 4.796a4.44 4.44 0 0 1-4.8-4.04M1435.64 379.443l.25 2.902M1444.21 381.633l-.25-2.902" style="fill:none;stroke:#000;stroke-width:3px"/></svg>