<svg viewBox="0 0 1920 1080" xmlns="http://www.w3.org/2000/svg" xml:space="preserve" style="fill-rule:evenodd;clip-rule:evenodd;stroke-linecap:round;stroke-linejoin:round;stroke-miterlimit:1.5"><path d="M1304.75 468.676a1.284 1.284 0 0 0-.95 1.558c.5 2.089 1.51 6.257 2.01 8.346a1.292 1.292 0 0 0 1.56.951l2.67-.646c.34-.08.62-.289.8-.581.18-.293.24-.644.16-.976-.51-2.089-1.52-6.258-2.02-8.347-.08-.332-.29-.62-.59-.798a1.28 1.28 0 0 0-.97-.153l-2.67.646ZM1366.5 445.808l-18.34 4.433-8.62 4.271-11.2.521s-5.33 1.286-10.28 2.485c-4.62 1.116-7.46 5.766-6.35 10.386.65 2.672 1.37 5.643 2.03 8.367a8.585 8.585 0 0 0 4.2 5.512 8.621 8.621 0 0 0 6.91.623l5.35-1.801 12.69-1.718 9.75-5.443 8.99.913 11.13-2.687" style="fill:none;stroke:#000;stroke-width:3px"/><path d="m1323.11 471.629 7.09 8.976.72-5.055M1319.8 463.494l7.75-1.874M1336.91 463.059l2.63-8.547 3.93 5.514M1349.89 469.088l2.75 4.356 3.75-6.087M1354.44 454.865l9.58-2.313M1370.67 463.049c2.38-.575 4.78.89 5.35 3.268a4.435 4.435 0 0 1-3.26 5.353" style="fill:none;stroke:#000;stroke-width:3px"/><path d="M1368.59 454.428c2.38-.575 4.78.89 5.35 3.269a4.433 4.433 0 0 1-3.27 5.352M1366.5 445.808a4.446 4.446 0 0 1 5.36 3.268 4.44 4.44 0 0 1-3.27 5.352M1310.97 477.213l2.83-.685M1311.84 468.412l-2.83.684" style="fill:none;stroke:#000;stroke-width:3px"/></svg>