<svg viewBox="0 0 1920 1080" xmlns="http://www.w3.org/2000/svg" xml:space="preserve" style="fill-rule:evenodd;clip-rule:evenodd;stroke-linecap:round;stroke-linejoin:round;stroke-miterlimit:1.5"><path d="M1249.18 517.367c-.14.31-.16.665-.04.987.12.321.36.583.67.728 1.94.908 5.83 2.719 7.78 3.627.31.145.66.16.99.043.32-.117.58-.357.72-.667.36-.756.81-1.736 1.16-2.492a1.3 1.3 0 0 0 .05-.987 1.302 1.302 0 0 0-.67-.728c-1.95-.908-5.83-2.72-7.78-3.628-.31-.144-.67-.16-.99-.043a1.32 1.32 0 0 0-.73.668c-.35.756-.81 1.736-1.16 2.492ZM1269.81 454.827l-7.97 17.104-2.04 9.402-6.57 9.084s-2.32 4.964-4.47 9.587c-2.01 4.308-.15 9.428 4.16 11.435l7.8 3.637a8.606 8.606 0 0 0 6.93.149 8.63 8.63 0 0 0 4.8-5.009l1.93-5.307 6.57-10.997 1.82-11.011 6.33-6.466 4.83-10.369" style="fill:none;stroke:#000;stroke-width:3px"/><path d="m1262.94 504.853 11.44.056-3.5-3.717M1254.52 502.365l3.37-7.227M1264.84 488.722l-5.04-7.389 6.76.37M1277.65 482.33l5.12.571-2.42-6.73M1269.37 469.904l4.16-8.927M1285.89 462.32a4.431 4.431 0 0 1 5.89-2.146 4.44 4.44 0 0 1 2.15 5.892M1277.85 458.573a4.432 4.432 0 0 1 5.89-2.146 4.44 4.44 0 0 1 2.15 5.893" style="fill:none;stroke:#000;stroke-width:3px"/><path d="M1269.81 454.827c1.04-2.219 3.68-3.18 5.89-2.146a4.44 4.44 0 0 1 2.15 5.892M1259.73 517.828l1.23-2.641M1253.39 511.66l-1.23 2.64" style="fill:none;stroke:#000;stroke-width:3px"/></svg>