<svg viewBox="0 0 1920 1080" xmlns="http://www.w3.org/2000/svg" xml:space="preserve" style="fill-rule:evenodd;clip-rule:evenodd;stroke-linecap:round;stroke-linejoin:round;stroke-miterlimit:1.5"><path d="M1355.48 400.525a1.305 1.305 0 0 0-.98-.171c-.33.074-.62.278-.81.567-1.15 1.813-3.45 5.431-4.61 7.244-.18.289-.24.639-.17.973.08.334.28.625.57.809.7.448 1.62 1.028 2.32 1.476a1.288 1.288 0 0 0 1.78-.396c1.16-1.813 3.46-5.431 4.61-7.244.19-.289.25-.639.17-.973a1.299 1.299 0 0 0-.56-.809c-.71-.448-1.62-1.028-2.32-1.476ZM1414.8 429.125l-15.92-10.131-9.06-3.243-8.15-7.707-8.92-5.678a8.604 8.604 0 0 0-11.88 2.64c-1.48 2.319-3.12 4.898-4.63 7.262a8.65 8.65 0 0 0-1.05 6.852 8.601 8.601 0 0 0 4.35 5.404c2.69 1.403 5.01 2.604 5.01 2.604l10.04 7.95 10.68 3.239 5.59 7.113 9.65 6.142" style="fill:none;stroke:#000;stroke-width:3px"/><path d="m1366.09 415.796-1.54 11.332 4.14-2.987M1369.65 407.77l6.73 4.281M1381.84 419.785l7.98-4.034-1.25 6.652M1386.51 433.318l-1.24 4.999 6.99-1.521M1399.9 426.726l8.31 5.288M1405.27 444.09a4.427 4.427 0 0 1 1.36 6.122 4.433 4.433 0 0 1-6.12 1.36" style="fill:none;stroke:#000;stroke-width:3px"/><path d="M1410.03 436.607a4.427 4.427 0 0 1 1.36 6.122 4.432 4.432 0 0 1-6.12 1.361" style="fill:none;stroke:#000;stroke-width:3px"/><path d="M1414.8 429.125a4.444 4.444 0 0 1 1.36 6.122 4.446 4.446 0 0 1-6.13 1.36M1353.64 410.927l2.46 1.564M1360.59 405.447l-2.46-1.564" style="fill:none;stroke:#000;stroke-width:3px"/></svg>