<svg viewBox="0 0 1920 1080" xmlns="http://www.w3.org/2000/svg" xml:space="preserve" style="fill-rule:evenodd;clip-rule:evenodd;stroke-linecap:round;stroke-linejoin:round;stroke-miterlimit:1.5"><path d="M1243.07 530.897a1.295 1.295 0 0 0 .41-1.778l-4.55-7.283a1.286 1.286 0 0 0-1.78-.411c-.71.441-1.62 1.014-2.33 1.456-.29.181-.5.47-.57.804-.08.333-.02.684.16.974l4.55 7.283a1.286 1.286 0 0 0 1.78.411c.7-.441 1.62-1.014 2.33-1.456ZM1191.68 572.087l16.01-9.996 6.83-6.773 10.47-4.03s4.64-2.901 8.97-5.602c4.03-2.518 5.26-7.826 2.74-11.858a3592.59 3592.59 0 0 1-4.56-7.301 8.615 8.615 0 0 0-5.73-3.903 8.616 8.616 0 0 0-6.75 1.588l-4.51 3.398-11.5 5.637-7.53 8.24-8.83 1.973-9.7 6.06" style="fill:none;stroke:#000;stroke-width:3px"/><path d="m1224.71 533.89-9.56-6.28.91 5.024M1230.42 540.566l-6.77 4.224M1214.32 546.377l.2 8.941-5.46-3.993M1200.1 544.753l-3.98-3.266-1.64 6.96M1200.27 559.686l-8.35 5.217M1182.29 557.042c-2.08 1.296-4.82.664-6.11-1.412a4.429 4.429 0 0 1 1.41-6.11M1186.99 564.565c-2.08 1.296-4.82.663-6.11-1.413a4.429 4.429 0 0 1 1.41-6.11M1191.68 572.087a4.44 4.44 0 0 1-6.11-1.412 4.44 4.44 0 0 1 1.42-6.11M1234.47 524.759l-2.47 1.543M1236.42 533.385l2.47-1.543" style="fill:none;stroke:#000;stroke-width:3px"/></svg>