<svg viewBox="0 0 1920 1080" xmlns="http://www.w3.org/2000/svg" xml:space="preserve" style="fill-rule:evenodd;clip-rule:evenodd;stroke-linejoin:round;stroke-miterlimit:2"><path d="M1134.88 604.953c-.58-2.085-2.26-5.695-1.25-7.547 1.02-1.866 5.34-2.386 7.4-3.603 1.78-1.05 4.92-2.613 4.97-3.701.05-1.087-3.11-1.897-4.67-2.824-1.6-.941-3.3-1.808-4.87-2.824-1.69-1.088-3.54-2.857-5.26-3.701-1.57-.77-3.33-1.168-5.07-1.363-1.88-.211-4.65.276-6.23.097-1.13-.128-2.47-.47-3.21-1.168-.75-.698-1.41-2.11-1.27-3.019.15-.909 1.19-1.92 2.14-2.435 1.95-1.055 6.74-2.743 9.55-3.895 2.43-1 4.93-1.871 7.3-3.019 2.58-1.25 5.17-3.69 8.18-4.48 3.52-.925 10.24-.844 12.95-1.071 1.11-.093 2.36.227 3.31-.292.96-.52 2.32-2.131 3.53-2.436 1.54-.389 3.76-1.053 5.73.098 2.46 1.445 6.48 4.678 7.98 8.181 1.59 3.717 1.33 10.55 1.56 14.121.15 2.43-2.3 6.07-.2 7.303 2.52 1.477 11.71.763 15.29 1.559 2.29.506 5.91.899 6.24 3.213.1.761.03 1.848-.16 3.114 0 0-1.86 27.313-2.64 38.82a6.133 6.133 0 0 1-5.33 5.663c-9.53 1.239-30.28 3.934-40.22 5.224a6.125 6.125 0 0 1-6.76-4.701l-1.65-7.148c-1.76.047-3.51.09-5.18.125-6.96.146-18.16.438-22.2.292-.79-.028-2.52-.539-2.05-1.169.57-.763 3.5-2.536 5.46-3.408 3.27-1.461 10.06-3.896 14.21-5.356 1.92-.672 4.21-1.334 6.29-1.952l-3.85-16.649-.02-.049Zm22.22 12.027c-.21-1.541-2.12-4.706-2.82-6.914-.65-2.058-1.63-4.723-1.37-6.33.24-1.453 1.53-3.23 2.93-3.311 1.39-.081 4.62.954 5.45 2.824.86 1.932-.99 6.963-.29 8.765.59 1.53 2.86 2.299 4.48 2.045 1.65-.26 3.97-2.143 5.45-3.603 1.47-1.45 2.5-3.847 3.41-5.162.65-.934 1.09-2.24 2.04-2.726.96-.487 2.67-.666 3.7-.195 1.04.47 2.47 1.85 2.54 3.019.06 1.168-1.25 2.773-2.15 3.992-.97 1.331-2.64 2.987-3.7 3.993-.8.767-2.14 1.445-2.63 2.045-.33.411-.71 1.396-.29 1.558.42.163 2.01-.073 2.83-.584 1.34-.844 3.76-3.295 5.25-4.48 1.19-.94 2.5-2.499 3.7-2.629 1.21-.13 3.11.974 3.51 1.85.41.877-.28 2.522-1.07 3.409-.97 1.087-3.38 2.288-4.77 3.116-1.16.689-2.48 1.25-3.61 1.85-1.05.564-2.54 1.185-3.11 1.753-.4.397-.68 1.283-.29 1.656.39.373 1.75.682 2.63.584.87-.097 1.71-.865 2.63-1.168.92-.309 2.01-.828 2.92-.682.91.146 2.29.893 2.53 1.558.24.666-.42 1.83-1.07 2.435-.72.665-2.05 1.306-3.22 1.558-1.2.26-2.79.26-3.99 0-1.16-.252-2.02-1.558-3.21-1.558-1.2 0-2.7 1.087-4 1.558-1.25.455-2.5.924-3.79 1.266-1.35.357-2.83.833-4.29.876-1.65.049-19.85.715-21.81.974-1.97.26-4.43.682-5.94.39-1.24-.24-2.52-1.445-3.12-2.143-.46-.531-.98-1.543-.49-2.045.65-.665 2.86-1.468 4.39-1.948 2.53-.795 7.62-1.947 10.81-2.824 2.77-.764 6.63-1.639 8.27-2.434.85-.409 1.69-1.41 1.56-2.338Zm-4.87-31.844c-.08-.617 1.56-1.53 2.53-1.948 1.11-.471 2.96-1.169 4.09-.877 1.14.293 2.6 1.786 2.73 2.63.13.844-.95 2.129-1.95 2.434-1.05.325-3.14-.113-4.38-.486-1.11-.338-2.94-1.137-3.02-1.753Zm11.88-13.147c.05-1.201 2.18-1.526 2.73-2.435.53-.876.52-2.061.58-3.019.07-.909-.81-2.97-.19-2.727.62.244 2.97 2.521 3.89 4.188 1.08 1.931 2.1 4.837 2.54 7.401.44 2.565.13 6.054.09 7.986-.02 1.205.83 3.151-.29 3.603-1.28.519-6.36.195-7.4-.487-1.04-.682 1.25-2.662 1.17-3.603-.08-.874-1.56-1.174-1.66-2.045-.11-1.023 1.21-2.708.98-4.09-.25-1.477-2.49-3.571-2.44-4.772Zm-33.4-.39c1.44-.438 3.81-.349 5.55-1.071 2.19-.909 5.37-3.23 7.6-4.382 1.85-.963 4.23-2.321 5.74-2.532 1.17-.164 2.93.149 3.31 1.266.47 1.363-.01 5.843-.48 6.914-.32.728-1.66-.073-2.34-.487-1.04-.633-3.04-2.986-3.9-3.311-.58-.219-1.13.758-1.26 1.363-.2.877.5 2.66.1 3.896-.41 1.249-2.34 2.678-2.54 3.603-.16.775.59 1.79 1.37 1.948 1.04.211 3.81-1.266 4.87-.682 1.05.584 1.52 2.84 1.46 4.187-.07 1.348-.54 3.441-1.85 3.896-1.32.454-4.27-.141-6.04-1.169-2.36-1.363-5.42-5.713-8.08-7.011-2.38-1.159-6.33-.406-7.89-.78-.67-.16-1.67-.802-1.46-1.46.21-.682 1.75-1.932 2.72-2.63.95-.676 2.01-1.221 3.12-1.558Zm25.13 3.409c.84-.893 2.17-1.786 3.4-1.656 1.24.13 3.53 1.428 4 2.435.47 1.006-.44 2.808-1.17 3.603-.73.795-2.08 1.267-3.22 1.169-1.31-.114-4.17-.926-4.67-1.851-.5-.925.81-2.808 1.66-3.7Zm-.2-4.772c-.86-.448-.44-2.078 0-2.922.44-.844 1.67-1.551 2.63-2.142 1.01-.617 2.42-1.932 3.41-1.558.99.373 2.63 2.71 2.53 3.798-.1 1.087-1.81 2.294-3.12 2.726-1.42.471-4.54.568-5.45.098Z"/></svg>