<svg viewBox="0 0 1920 1080" xmlns="http://www.w3.org/2000/svg" xml:space="preserve" style="fill-rule:evenodd;clip-rule:evenodd;stroke-linejoin:round;stroke-miterlimit:2"><path d="M1144.95 724.759c-.46-1.079 1.04-2.583.38-3.578-1.49-2.224-6.2-6.429-9.24-9.694-3.14-3.365-7.06-7.014-9.58-10.493-2.31-3.179-4.22-7.413-5.59-10.379-1.1-2.38-3.04-6.235-2.63-7.413.42-1.179 3.61-.434 5.14.342 2.58 1.312 6.89 5.061 10.38 7.527 3.49 2.472 7.35 5.513 10.6 7.3 2.79 1.53 6.48 3.117 8.9 3.421 1.92.242 5.26-.361 5.59-1.596.32-1.236-1.8-4.467-3.65-5.817-3.67-2.68-12.91-7.204-18.37-10.265-4.79-2.69-10.93-5.835-14.37-8.098-2.32-1.524-5.18-4.067-6.27-5.474-.6-.785-.89-2.376-.23-2.965.67-.59 2.82-.758 4.22-.571 2.28.304 6.29 1.721 9.47 2.395 3.59.761 8.4 2.358 12.09 2.167 3.52-.181 7.03-2.452 10.04-3.307 2.62-.748 5.47-1.977 7.98-1.825 2.51.152 5 2.395 7.07 2.737 1.78.294 3.67-1.313 5.36-.684 2.76 1.026 8.37 4.068 11.18 6.843 2.69 2.656 4.03 6.691 5.7 9.809 1.56 2.906 3.35 6.748 4.33 8.896.6 1.302.86 3.25 1.6 3.992.68.68 1.91.275 2.85.456 2.28.437 8.65 1.501 10.84 2.167.92.279 2.28.836 2.28 1.785v.04c-.02.51-.12 1.22-.28 2.046l-6.52 48.452a6.93 6.93 0 0 1-6.44 5.995l-30.96 1.912a6.93 6.93 0 0 1-6.7-3.962l-15.14-32.1-.03-.061Zm8.02-16.922c2.75-.019 8.66-1.597 12.09-2.395 2.84-.665 5.93-2.091 8.44-2.395 2.19-.266 5.76-.057 6.61.57.86.627-.46 2.625-1.48 3.194-1.41.779-5.57.76-6.96 1.482-.93.487-2.11 2.129-1.37 2.852.74.722 3.83 1.287 5.82 1.482 2.13.209 5.07-.855 6.96-.228 1.86.621 4.71 3.327 4.33 3.992-.38.665-4.41-.015-6.61 0-2.76.019-8.44-.418-9.93.114-1.02.366.05 2.62 1.03 3.079 1.82.856 7.47 1.274 9.92 2.053 1.74.552 5.57 2.053 4.79 2.624-.78.57-6.4.912-9.47.798-3-.112-7.24-1.54-8.89-1.483-.7.024-1.44 1.259-1.03 1.825.74 1.027 5.99 3.593 5.48 4.334-.52.741-5.78.764-8.56.114-3.25-.76-8.49-2.984-10.95-4.676-1.82-1.258-2.44-3.692-3.76-5.474-1.65-2.244-4.09-5.337-6.16-7.984-2.53-3.232-7.41-8.953-9.01-11.405-.61-.938-1.68-3.375-.57-3.308 1.27.076 5.74 2.338 8.21 3.764 2.36 1.36 4.77 3.611 6.62 4.79 1.4.897 2.78 2.293 4.45 2.281Zm29.92-6.393c3.92-.221 22-1.236 23.03 1.763.7 2.012-9.65 3.76-12.4 4.473-3.12.811-6.96 1.621-10.16 2.046-3.7.49-1.17-2.805-.9-4.967.24-1.858-.87-3.241.43-3.315Zm.32-19.266c.86 1.008 1.64 3.053 2.56 4.519 1.19 1.906 2.46 3.66 2.95 5.894.27 1.218.64 2.705.19 3.924-.4 1.083-1.81 1.248-2.8 1.351-2.63.272-5.29.089-7.9.47-.8.117-2.85.773-3.47-.173-.22-.33.01-.842.2-1.122.45-.667 1.14-1.085 1.04-1.964-.11-1.076-1.04-1.846-.53-2.99.38-.841 1.22-1.455 1.93-1.995.45-.337 1.06-.808 1.17-1.398.2-1.089-.79-1.963-1.02-2.952-.13-.514.05-1.055.29-1.507.46-.874 1.18-1.569 1.71-2.397.24-.382.62-1.042 1.09-1.194.74-.241 1.94.77 2.59 1.534Zm-15.77 15.226c-1.36.214-3.24-.597-3.92-1.988-.24-.489.08-1.214.33-1.629.75-1.266 2.47-2.197 3.94-2.061 1.54.143 3.08 1.062 3.85 2.404 1.22 2.125-2.85 3.059-4.2 3.274Zm1.7-7.817c-1.49.099-3.97-1.237-4.65-2.965-.39-.994.26-1.871.97-2.506 1.47-1.309 3.2-1.71 5-.888 1.23.563 2.51 1.449 2.95 2.801.62 1.901-2.79 3.459-4.27 3.558Zm-36.93-14.597c.65-1.026 7.26.057 10.26-.228 2.62-.249 5.25-.701 7.76-1.483 2.57-.798 5.19-3.668 7.64-3.307 2.45.361 6.44 3.725 7.07 5.474.63 1.749-2.15 3.954-3.31 5.019-.95.878-3.33.109-3.64 1.368-.35 1.35 2.79 5.665 1.59 6.729-1.2 1.065-6.03.66-8.78-.342-3.5-1.274-9.11-5.094-12.2-7.299-2.37-1.685-7.04-4.905-6.39-5.931Zm43.05 1.614c.96.312 1.59 1.705 1.33 2.745-.15.583-.95 1.017-1.48 1.169-1.28.368-2.99.176-4.3.003-.5-.065-1.15-.129-1.54-.483-.93-.834-.04-2.178.61-2.849 1.41-1.452 4.26-.945 5.38-.585Z"/></svg>