<svg viewBox="0 0 1920 1080" xmlns="http://www.w3.org/2000/svg" xml:space="preserve" style="fill-rule:evenodd;clip-rule:evenodd;stroke-linejoin:round;stroke-miterlimit:2"><path d="M723.44 592.517c-.429-.974-.786-1.966-1.004-2.943-.245-1.095-.765-2.49-.114-3.489.25-.384 1.052-.653 1.452-.816 1.316-.535 2.671-.953 3.983-1.507 4.949-2.09 13.765-5.151 13.765-5.151s-1.791-4.681-2.364-6.369c-1.337-3.937-1.867-7.419-2.384-11.532-.244-1.939.544-11.26 1.515-13.548 1.354-3.186 3.379-6.244 6.475-7.85 4.695-2.437 12.307-2.406 15.38-1.411 4.325 1.4 7.902 4.474 10.456 8.155l.675 1.519c3.346-1.173 6.523-2.31 10.097-2.513 3.53-.2 7.59.706 10.339 3.021 2.209 1.86 3.71 4.368 5.106 6.857 3.918 6.99 6.068 14.847 9.052 22.233 1.74 4.306 3.833 8.429 5.682 12.684.892 2.052 1.852 4.555.939 6.779-.759 1.849-2.963 2.065-4.658 1.421-1.477-.561-2.331-1.593-3.389-2.689-1.302-1.347-2.584-2.713-3.882-4.065a10 10 0 0 0-2.486-1.894c-.109-.058-.846-.494-.939-.424-.056.042.36 1.226.396 1.357.268.983.411 2.952.138 3.944-.624 2.263-.747 6.21 4.205 8.742 4.651 2.378 10.018 5.2 13.339 7.2 3.545 2.135 7.442 3.636 10.939 5.849 2.444 1.546 4.244 2.444 6.574 4.224 1.296.99 2.874 3.246 1.816 4.354-.759.796-6.961-.878-11.014-2.131-5.538-1.712-11.297-3.492-16.817-5.212-2.476-.771-4.91-1.726-7.396-2.481.003.028.571 5.143 1.043 9.425a6.581 6.581 0 0 1-4.899 7.1c-5.204 1.302-12.804 3.282-17.011 4.741-5.149 1.786-14.318 5.654-20.404 8.24a6.552 6.552 0 0 1-8.517-3.309c-2.569-5.895-6.772-14.685-10.806-19.358-6.7-7.761-15.282-29.153-15.282-29.153Zm21.582 5.382c-.977.795-.994 2.277-.702 3.664.281 1.332 1.558 2.546 2.58 3.347.77.604 1.794 1.225 2.756 1.723a27.353 27.353 0 0 0 3.411 1.467c.937.328 2.126.444 2.632 1.336.228.401.234 1.175-.239 1.426-.38.203-.856.14-1.254.035a14.22 14.22 0 0 1-2.184-.796c-.814-.369-1.558-.865-2.366-1.245-1.241-.584-3.441-1.559-4.092-1.164-.653.397-1.52 1.333-1.171 2.159.392.927 1.766 1.523 2.572 1.991 2.564 1.487 5.316 2.824 8.228 3.444 5.889 1.254 11.369-1.065 16.935-2.757 5.495-1.672 11.276-2.68 17.026-2.206 6.199.511 12.714 2.058 18.535 4.223 2.67.994 5.148 2.361 7.776 3.439 2.019.829 3.938.834 6.067 1.402 2.689.719 3.647-1.109 1.482-1.823-2.101-.692-4.921-2.89-6.961-3.755-4.575-1.94-20.85-10.045-24.26-13.105-2.469-2.216-5.174-3.977-5.93-7.309-1.03-4.537-.121-9.407-3.002-13.316-1.418-1.924-4.278-4.075-6.844-2.981-.912.389-1.731 1.349-2.338 2.105-.454.564-.918 1.182-1.161 1.872-1.377 3.911 4.469 7.472 1.87 11.381-.339.51-.794.97-1.288 1.346-.839.636-2.736 2.43-3.746 2.473-5.86.25-8.912-5.29-13.581-7.863-2.307-1.271-5.014-2.619-7.659-1.556-.856.344-1.497 1.034-1.921 1.839-.625 1.186-1.053 2.762-.459 4.045.334.724 1.15 1.287 1.791 1.765 1.291.711 2.528 1.522 3.84 2.194 1.605.822 7.151 3.654 7.865 4.593.274.359.537 1.11.16 1.494-.267.272-.946.048-1.234-.023-1.148-.28-2.297-.799-3.289-1.439-2.55-1.646-7.894-5.016-9.845-3.425Zm50.013-17.207c-.821-.982-7.39-8.448-8.814-9.722-1.217-1.089-2.782-2.305-3.231-3.956-.445-1.639 1.533-2.881 2.095-4.275 1.03-2.555-1.286-5.172-3.206-6.603-1.334-.994-2.7-1.375-3.938-.068-.637.67-1.005 1.861-2.073 1.76-2.169-.203-1.979-2.765-3.826-3.374a4.424 4.424 0 0 0-2.414-.098c-.283.066-.562.143-.839.229-.125.039-.344.248-.375.12-.017-.069.195-.337.235-.4.258-.4.524-.792.835-1.153 1.312-1.522 3.072-2.773 4.967-3.447 4.621-1.645 10.368-1.587 14.435 1.448.977.73 1.722 1.69 2.44 2.665.988 1.341 1.772 2.805 2.636 4.224.579.95 1.257 1.83 1.765 2.823.542 1.059.948 2.179 1.48 3.242 1.616 3.23 3.221 6.496 4.582 9.843.566 1.392.969 2.845 1.506 4.248.677 1.765 1.448 3.506 2.041 5.301.544 1.644 1.1 3.263 1.741 4.873.377.948.863 1.861 1.16 2.84.228.751.61 2.202-.459 2.529-.682.209-1.353-.098-1.932-.441-1.457-.863-2.356-2.473-3.305-3.82-2.229-3.164-5.029-5.826-7.506-8.788Zm-32.575-35.609c-2.435-4.07-7.625-4.221-11.546-2.16-1.795.943-3.287 2.571-4.381 4.254-2.605 4.007-3.256 9.761-2.534 14.393.325 2.086 1.019 4.045 1.553 6.078.597 2.276 1.24 4.474 2.235 6.615a22.6 22.6 0 0 0 .77 1.492c.045.08.184.44.259.468.268.102 1.434-.44 1.74-.521 1.814-.484 3.61-1.043 5.422-1.539 1.903-.519 3.765-1.163 5.667-1.68.437-.119.875-.238 1.309-.368.037-.011.412-.114.41-.124-.06-.392-1.029-.967-1.243-1.401-.709-1.435.297-2.909 1.008-4.09.02-.033-.64-.534-.72-.596-.737-.572-1.527-1.054-2.108-1.801a6.117 6.117 0 0 1-1.237-4.777c.062-.398.304-.7.401-1.072.05-.192-.667-.902-.831-1.066-.921-.923-2.094-1.672-2.839-2.759-2.512-3.673-.295-8.705 6.665-9.346Zm16.333 22.281c-.588.502-1.259 1.092-1.829 1.853-1.278 1.704-2.021 3.824-4.388 4.168-1.777.258-3.743-.628-4.826-2.048-.548-.719-.918-1.617-.549-2.508.288-.692.877-1.287 1.473-1.722 1.162-.847 2.509-1.252 3.853-1.712 1.744-.598 3.537-1.26 5.389-1.424 1.256-.111 3.609.446 2.578 2.233-.213.368-1.251.776-1.701 1.16Zm-7.252-3.626c-1.317.351-3.275 1.757-5.358.828-.694-.309-1.252-.846-1.864-1.284-.608-.435-1.263-.743-1.68-1.391-.987-1.538-.566-3.241 1.116-3.94.968-.403 2.06-.488 3.094-.539 1.914-.096 3.601-.039 5.279.959 1.108.659 3.77 2.06 2.468 3.648-.145.177-2.517 1.576-3.055 1.719Zm-2.675-13.137c-.218.849-2.668 1.428-3.242 2.665-.269.58-.363 1.318-.887 1.742-.727.588-1.517.542-2.411.511-1.878-.064-3.482-.557-3.896-2.605-.277-1.37.586-2.256 1.668-2.974 1.855-1.231 4.587-2.09 6.834-1.763 1.225.178 2.152 1.576 1.934 2.424Z"/></svg>