<svg viewBox="0 0 1920 1080" xmlns="http://www.w3.org/2000/svg" xml:space="preserve" style="fill-rule:evenodd;clip-rule:evenodd;stroke-linejoin:round;stroke-miterlimit:2"><path d="M723.893 728.122c-.195-2.011.109-4.155.728-5.718.837-2.109 2.751-3.763 4.703-4.921 2.15-1.275 5.394-2.082 8.201-2.734 3.299-.765 9.194-1.4 11.592-1.859.961-.184 2.764-.364 2.795-.895 1.464-3.922 2.596-8.094 4.387-11.877l.053-1.658c-2.118-3.271-4.675-6.642-6.042-10.308-.578-1.547-1.212-3.162-.896-4.842.976-5.197 8.377-7.57 12.698-9.014 13.132-4.387 27.226-5.887 40.993-6.733 5.819-.357 11.494-.41 17.31.09 2.837.243 6.521.689 8.844 2.521 1.217.961.192 1.865-.872 2.509-1.92 1.162-4.454 1.601-6.637 1.966-7.237 1.211-14.788.032-21.578 3.339-2.267 1.103-5.806 3.294-6.134 6.058-.343 2.888 7.265 2.12 9.815 1.241 4.625-1.592 9.642-.933 14.197-2.697 3.899-1.509 6.942-4.458 10.766-6.028 2.395-.983 5.241-1.226 6.375 1.658 2.171 5.525-5.606 8.649-9.332 10.349-6.975 3.183-12.747 7.417-17.227 13.774-2.58 3.661-4.52 7.912-6.521 11.909-1.008 2.014-2.127 4.121-3.917 5.649-2.391 2.041-6.614 2.708-9.567 3.463 0 0 2.15 1.595 2.7 2.758.778 1.645 2.216 4.662 1.969 7.108-.127 1.251-.465 2.755-.999 4.257v.001c-.615 1.73-1.489 3.461-2.597 4.802l-16.569 30.648a6.933 6.933 0 0 1-7.531 3.486l-30.761-6.496a6.933 6.933 0 0 1-5.42-5.733l-5.337-34.836a11.013 11.013 0 0 1-.189-1.234v-.003Zm53.916-7.262c-4.819-2.277-10.549-3.982-16.057-3.935-4.871.041-31.519-1.701-34.337 6.941-2.757 8.451 20.923 13.024 28.007 13.708 1.457.141 12.761 2.35 22.008 2.61.179-1.071.351-2.143.49-3.221.628-4.891.659-11.27-.357-16.094l.246-.009Zm4.066 2.176c.125 1.793.021 3.818.095 5.244.184 3.509.402 6.831-.54 10.285a15.218 15.218 0 0 1-.541 1.614c4.436-.162 7.898-.993 8.702-3.063 1.143-2.941.982-6.335-1.283-8.994-1.318-1.546-3.583-3.368-6.433-5.086Zm33.223-31.241c-1.461 2.61-8.731 8.503-11.529 12.404-1.911 2.664-3.7 5.384-5.686 7.994-1.252 1.646-2.327 3.189-4.138 4.281-1.811 1.092-4.105 1.496-6.171 1.781-2.345.323-4.691.702-7.054.871-1.199.085-2.686-.051-3.431-1.17-1.034-1.555 1.103-3.36 2.068-3.701 1.679-.592 4.52-.856 4.647-1.583.178-1.025-.918-1.111-1.797-1.561-1.615-.826-3.513-.876-5.222-1.346-1.451-.398-2.17-1.837-1.599-3.431.784-2.186 3.809-2.385 5.731-2.442.549-.016 2.433.225 2.764-.497.357-.779-1.007-1.845-1.47-2.17-1.325-.928-3.152-1.331-4.288-2.484-1.043-1.059-1.089-2.91.111-3.835.874-.673 2.457-1.589 3.609-1.291 1.835.474 3.61 2.763 5.615 2.106 1.276-.418 1.897-1.968 2.089-3.161.13-.811.164-1.851.921-2.382 1.226-.86 3.115-.933 4.553-1.169 3.024-.494 6.072-1.082 9.124-1.357 2.57-.231 7.515-.726 9.925.349 1.673.747 1.877 2.634 1.228 3.794Zm-56.251 16.622c.836-3.251 2.51-7.277 6.4-8.863 1.359-.554 4.63-1.015 5.364.862.48 1.228-.821 2.463-1.541 3.255-.97 1.066-1.454 2.64-.926 4.025.896 2.347 3.924 2.945 5.642 4.551.718.671 1.633 1.816 1.178 2.874-.396.918-1.424.867-2.253.643-1.775-.481-3.344-1.656-5.18-1.911-.662-.092-1.331-.049-1.994.011-.485.044-.97.109-1.454.168-1.977.241-6.456 1.077-6.109-2.245.039-.371.584-2.246.873-3.37Zm28.381-24.503c.793-.67 1.005-1.813 1.714-2.6 1.675-1.858 4.074-2.938 6.315-3.947 1.896-.854 4.669-.995 4.598-3.629-.046-1.693-1.665-2.959-3.212-3.246-2.897-.539-6.087.68-8.898 1.226-5.794 1.125-11.626 1.936-17.371 3.315-1.562.375-3.184.565-4.719 1.042-1.581.49-3.004 1.267-4.355 2.212-2.206 1.542-5.065 3.508-5.937 6.179-.274.839-.214 1.72-.169 2.587.131 2.501.937 4.745 2.523 6.711.813 1.007 2.606 2.377 3.958 1.513 1.972-1.262.646-4.22.178-5.914-.143-.519-.441-2.177.315-2.525.11-.051 1.361.785 1.699 1.239.944 1.268 1.437 2.586 1.702 4.137.102.595.295 1.524 1.057 1.499 1.08-.036 1.587-1.004 1.806-1.955.423-1.831-.35-4.008.47-5.756.034-.072 1.319.895 1.661 1.311.816.995 2.347 2.85 3.85 2.578 1.991-.362 1.827-3.253 1.822-4.698-.003-.69-.001-1.34.536-1.838.143-.133.774-.014.96.015 1.165.179 1.849.97 2.473 1.915.303.459.555.954.751 1.467.109.285.204.73.461.923 2.197 1.646 4.558-2.701 5.812-3.761Z"/></svg>