<?xml version="1.0" encoding="UTF-8" standalone="no"?><!DOCTYPE svg PUBLIC "-//W3C//DTD SVG 1.1//EN" "http://www.w3.org/Graphics/SVG/1.1/DTD/svg11.dtd"><svg width="100%" height="100%" viewBox="0 0 275 71" version="1.1" xmlns="http://www.w3.org/2000/svg" xmlns:xlink="http://www.w3.org/1999/xlink" xml:space="preserve" xmlns:serif="http://www.serif.com/" style="fill-rule:evenodd;clip-rule:evenodd;stroke-linejoin:round;stroke-miterlimit:2;"><path d="M247.619,0.912C255.124,-1.216 263.612,0.45 268.764,5.176C276.722,12.476 276.722,27.076 268.764,41.676C263.193,52.626 248.869,63.576 236.932,70.876C224.995,63.576 210.671,52.626 205.1,41.676C197.142,27.076 197.142,12.476 205.1,5.176C211.267,-0.481 222.215,-1.754 230.534,2.618L223.432,25.736L236.932,37.021L231.532,51.127L239.632,62.412L236.932,51.48L245.369,37.021L234.569,22.915L247.619,0.912Z" style="fill:white;"/><path d="M148.053,0.912C155.559,-1.216 164.046,0.45 169.198,5.176C177.156,12.476 177.156,27.076 169.198,41.676C163.627,52.626 149.303,63.576 137.366,70.876C125.429,63.576 111.105,52.626 105.534,41.676C97.576,27.076 97.576,12.476 105.534,5.176C111.702,-0.481 122.649,-1.754 130.968,2.618L123.866,25.736L137.366,37.021L131.966,51.127L140.066,62.412L137.366,51.48L145.804,37.021L135.004,22.915L148.053,0.912Z" style="fill:white;fill-opacity:0.1;"/><path d="M48.488,0.912C55.993,-1.216 64.48,0.45 69.632,5.176C77.591,12.476 77.591,27.076 69.632,41.676C64.062,52.626 49.737,63.576 37.8,70.876C25.863,63.576 11.539,52.626 5.968,41.676C-1.989,27.076 -1.989,12.476 5.968,5.176C12.136,-0.481 23.083,-1.754 31.402,2.618L24.3,25.736L37.8,37.021L32.4,51.127L40.5,62.412L37.8,51.48L46.238,37.021L35.438,22.915L48.488,0.912Z" style="fill:white;fill-opacity:0.1;"/></svg>