<?xml version="1.0" encoding="UTF-8" standalone="no"?><!DOCTYPE svg PUBLIC "-//W3C//DTD SVG 1.1//EN" "http://www.w3.org/Graphics/SVG/1.1/DTD/svg11.dtd"><svg width="100%" height="100%" viewBox="0 0 586 255" version="1.1" xmlns="http://www.w3.org/2000/svg" xmlns:xlink="http://www.w3.org/1999/xlink" xml:space="preserve" xmlns:serif="http://www.serif.com/" style="fill-rule:evenodd;clip-rule:evenodd;stroke-miterlimit:1.5;"><g><path d="M2.704,95.439L111.247,0L203.704,29.439L582.704,29.439L515.704,185.439L240.704,176.439L136.469,231.324L14.704,155.439" style="fill:rgb(34,34,33);"/><path d="M2.704,115.439L111.247,20L203.704,49.439L582.704,49.439L515.704,205.439L240.704,196.439L136.469,251.324L14.704,175.439" style="fill:none;stroke:white;stroke-width:3px;"/><path d="M358.019,50.841C356.337,50.841 354.793,50.478 353.387,49.752C351.981,49.026 350.766,48.058 349.74,46.848C348.714,45.638 347.919,44.278 347.355,42.769C346.79,41.259 346.508,39.732 346.508,38.188C346.508,36.69 346.767,35.221 347.285,33.781C347.804,32.34 348.564,31.027 349.567,29.839C350.57,28.653 351.797,27.708 353.249,27.005C354.701,26.302 356.349,25.951 358.192,25.951L362.378,25.951L362.48,25.951L372.094,25.951L372.094,28.752L362.101,28.752C360.798,28.77 359.64,29.046 358.627,29.58C357.578,30.133 356.697,30.871 355.982,31.793C355.268,32.715 354.732,33.746 354.375,34.887C354.018,36.028 353.839,37.174 353.839,38.326C353.839,39.594 354.052,40.815 354.479,41.991C354.905,43.166 355.499,44.203 356.259,45.102C357.02,46.001 357.919,46.715 358.955,47.245C359.964,47.761 361.06,48.026 362.243,48.04L372.094,48.04L372.094,50.841L358.019,50.841ZM451.391,47.971C452.259,47.968 453.024,47.749 453.687,47.315C454.355,46.877 454.926,46.111 455.398,45.016C455.871,43.921 456.245,42.394 456.521,40.435C456.798,38.476 456.983,35.976 457.075,32.934L457.282,26.089L498.022,26.089L498.022,50.633L494.91,50.633L494.91,32.867L460.186,32.867L460.048,33.729C459.932,37.07 459.685,39.842 459.305,42.043C458.924,44.244 458.383,45.972 457.68,47.228C456.977,48.484 456.107,49.377 455.07,49.907C454.033,50.438 452.8,50.703 451.371,50.703L446.157,50.703L446.157,47.971L451.391,47.971ZM228.778,33.388L248.142,33.388L249.273,26.123L252.384,26.123L251.253,33.388L253.569,33.388L253.569,36.153L250.822,36.153L250.124,40.638L253.569,40.638L253.569,43.404L249.693,43.404L248.561,50.668L245.45,50.668L246.582,43.404L227.218,43.404L226.086,50.668L222.975,50.668L224.106,43.404L182.704,43.404L176.704,40.638L224.537,40.638L225.235,36.153L160.704,36.153L153.704,33.388L225.666,33.388L226.798,26.123L229.909,26.123L228.778,33.388ZM294.703,26.123L294.703,50.668L291.591,50.668L291.591,39.502L266.036,39.502L266.036,50.668L259.102,50.668L259.102,26.123L266.036,26.123L266.036,36.736L291.591,36.736L291.591,26.123L294.703,26.123ZM340.975,43.89L340.975,50.668L300.236,50.668L300.236,26.123L340.664,26.123L340.664,32.902L303.347,32.902L303.347,36.84L338.935,36.84L338.935,39.433L303.347,39.433L303.347,43.89L340.975,43.89ZM503.554,50.668L503.554,26.123L506.666,26.123L506.666,36.736L509.95,36.736L518.039,26.123L529.66,26.123L520.533,38.016L530.282,50.668L518.454,50.668L510.019,39.571L506.666,39.571L506.666,50.668L503.554,50.668ZM423.958,26.123L430.599,26.123L440.624,50.668L433.292,50.668L430.539,43.477L419.982,43.477L417.217,50.668L413.898,50.668L423.958,26.123ZM545.875,26.123L556.528,26.123L566.553,50.668L555.209,50.668L552.456,43.477L541.898,43.477L539.134,50.668L535.815,50.668L545.875,26.123ZM408.366,44.342C408.366,45.609 408.043,46.715 407.398,47.66C406.752,48.605 405.883,49.343 404.788,49.873C403.693,50.403 402.489,50.668 401.175,50.668L377.487,50.668L377.487,26.123L401.728,26.123C402.881,26.123 403.877,26.428 404.719,27.039C405.56,27.65 406.205,28.434 406.655,29.39C407.104,30.346 407.329,31.343 407.329,32.38C407.329,33.579 407.023,34.702 406.412,35.751C405.802,36.8 404.932,37.577 403.803,38.084C405.208,38.499 406.32,39.266 407.139,40.383C407.956,41.501 408.366,42.82 408.366,44.342ZM401.207,43.789C401.207,43.028 401.04,42.325 400.706,41.68C400.372,41.035 399.922,40.516 399.357,40.124C398.793,39.732 398.142,39.537 397.404,39.537L380.598,39.537L380.598,47.971L397.162,47.971C397.923,47.971 398.608,47.776 399.219,47.384C399.83,46.992 400.314,46.479 400.671,45.846C401.028,45.212 401.207,44.526 401.207,43.789ZM429.613,41.057L425.272,29.719L420.912,41.057L429.613,41.057ZM551.53,41.057L547.189,29.719L542.828,41.057L551.53,41.057ZM247.711,36.153L228.347,36.153L227.648,40.638L247.012,40.638L247.711,36.153ZM380.598,28.82L380.598,37.013L396.436,37.013C397.174,37.013 397.825,36.828 398.39,36.46C398.954,36.091 399.404,35.596 399.738,34.973C400.072,34.351 400.239,33.671 400.239,32.934C400.239,32.15 400.083,31.453 399.772,30.842C399.461,30.231 399.035,29.742 398.493,29.373C397.952,29.004 397.335,28.82 396.644,28.82L380.598,28.82Z" style="fill:white;"/></g></svg>