<?xml version="1.0" encoding="UTF-8" standalone="no"?><!DOCTYPE svg PUBLIC "-//W3C//DTD SVG 1.1//EN" "http://www.w3.org/Graphics/SVG/1.1/DTD/svg11.dtd"><svg width="100%" height="100%" viewBox="0 0 796 136" version="1.1" xmlns="http://www.w3.org/2000/svg" xmlns:xlink="http://www.w3.org/1999/xlink" xml:space="preserve" xmlns:serif="http://www.serif.com/" style="fill-rule:evenodd;clip-rule:evenodd;stroke-linejoin:round;stroke-miterlimit:2;"><path d="M716,10C716,7.348 714.946,4.804 713.071,2.929C711.196,1.054 708.652,-0 706,0C619.431,0 0,0 0,0L0,136L706,136C708.652,136 711.196,134.946 713.071,133.071C714.946,131.196 716,128.652 716,126C716,100.845 716,35.155 716,10Z" style="fill-opacity:0.75;"/><path d="M796,38C796,32.477 791.523,28 786,28L716,28L716,108L786,108C791.523,108 796,103.523 796,98L796,38Z" style="fill-opacity:0.75;"/><rect x="716" y="28" width="21" height="80" style="fill:url(#_Linear1);"/><path id="Checked-Icon" serif:id="Checked Icon" d="M766.504,58.557L751.626,73.455L745.496,67.305C744.755,66.563 743.555,66.563 742.814,67.305C742.074,68.047 742.073,69.25 742.814,69.993L750.245,77.447C750.626,77.828 751.127,78.01 751.626,78C752.124,78.01 752.626,77.828 753.006,77.447L769.186,61.244C769.927,60.502 769.927,59.299 769.186,58.557C768.445,57.814 767.244,57.814 766.504,58.557Z" style="fill:url(#_Linear2);"/><defs><linearGradient id="_Linear1" x1="0" y1="0" x2="1" y2="0" gradientUnits="userSpaceOnUse" gradientTransform="matrix(21,0,0,21,716,63)"><stop offset="0" style="stop-color:black;stop-opacity:0.75"/><stop offset="1" style="stop-color:black;stop-opacity:0"/></linearGradient><linearGradient id="_Linear2" x1="0" y1="0" x2="1" y2="0" gradientUnits="userSpaceOnUse" gradientTransform="matrix(1.22465e-15,20,-20,1.22465e-15,753,58)"><stop offset="0" style="stop-color:rgb(223,137,152);stop-opacity:1"/><stop offset="0.9" style="stop-color:rgb(229,185,157);stop-opacity:1"/><stop offset="1" style="stop-color:rgb(229,183,155);stop-opacity:1"/></linearGradient></defs></svg>