<svg width="178" height="62" viewBox="0 0 178 62" fill="none" xmlns="http://www.w3.org/2000/svg">
<g filter="url(#filter0_d_220_55)">
<path d="M4 4H174V49C174 51.7614 171.761 54 169 54H9C6.23858 54 4 51.7614 4 49V4Z" fill="#0057A7"/>
</g>
<path d="M4 0H174V45C174 47.7614 171.761 50 169 50H9C6.23858 50 4 47.7614 4 45V0Z" fill="url(#paint0_radial_220_55)"/>
<path d="M4.5 0.5H173.5V45C173.5 47.4853 171.485 49.5 169 49.5H9C6.51472 49.5 4.5 47.4853 4.5 45V0.5Z" stroke="url(#paint1_radial_220_55)" stroke-opacity="0.5"/>
<path d="M69.64 28.088C69.64 28.7707 69.4533 29.3253 69.08 29.752C68.7173 30.1787 68.2267 30.4933 67.608 30.696C66.9893 30.8987 66.3067 31 65.56 31H59.976V19.64H66.568C67.1013 19.64 67.56 19.784 67.944 20.072C68.3387 20.3493 68.6373 20.712 68.84 21.16C69.0533 21.608 69.16 22.072 69.16 22.552C69.16 23.0747 69.0213 23.5813 68.744 24.072C68.4773 24.5627 68.072 24.9307 67.528 25.176C68.1787 25.368 68.6907 25.704 69.064 26.184C69.448 26.664 69.64 27.2987 69.64 28.088ZM66.472 27.448C66.472 27.256 66.4347 27.0907 66.36 26.952C66.296 26.8027 66.2053 26.6853 66.088 26.6C65.9707 26.5147 65.832 26.472 65.672 26.472H63.096V28.376H65.56C65.7307 28.376 65.8853 28.3387 66.024 28.264C66.1627 28.1893 66.2693 28.0827 66.344 27.944C66.4293 27.8053 66.472 27.64 66.472 27.448ZM63.096 22.296V24.04H65.224C65.3627 24.04 65.496 24.0187 65.624 23.976C65.752 23.9227 65.8587 23.832 65.944 23.704C66.0293 23.576 66.072 23.3947 66.072 23.16C66.072 22.9467 66.0347 22.7813 65.96 22.664C65.896 22.536 65.8053 22.4453 65.688 22.392C65.5813 22.328 65.4587 22.296 65.32 22.296H63.096ZM70.8469 31V22.584H73.8869V24.952H75.1029C76.1375 24.952 76.9375 25.224 77.5029 25.768C78.0682 26.3013 78.3509 27.0107 78.3509 27.896C78.3509 28.5147 78.2335 29.0587 77.9989 29.528C77.7642 29.9973 77.4175 30.36 76.9589 30.616C76.5109 30.872 75.9562 31 75.2949 31H70.8469ZM73.8869 28.712H74.7829C74.9535 28.712 75.0975 28.68 75.2149 28.616C75.3322 28.552 75.4175 28.4613 75.4709 28.344C75.5349 28.216 75.5669 28.0667 75.5669 27.896C75.5669 27.7253 75.5349 27.5813 75.4709 27.464C75.4175 27.3467 75.3322 27.256 75.2149 27.192C75.0975 27.1173 74.9535 27.08 74.7829 27.08H73.8869V28.712ZM79.5349 31V22.584H82.5749V31H79.5349ZM84.175 31V22.584H87.199V25.416H87.679L89.519 22.584H92.751L89.967 26.616L93.023 31H89.567L87.599 28.024H87.199V31H84.175ZM93.8044 31.16V28.472C94.0497 28.4613 94.263 28.4133 94.4444 28.328C94.6257 28.2427 94.7804 28.0987 94.9084 27.896C95.047 27.6827 95.1537 27.384 95.2284 27C95.303 26.6053 95.3564 26.0987 95.3884 25.48L95.5164 22.584H102.54V31H99.5004V25.224H98.2044L98.1724 25.8C98.119 26.8347 97.9964 27.6987 97.8044 28.392C97.6124 29.0853 97.3404 29.6347 96.9884 30.04C96.6364 30.4347 96.199 30.7173 95.6764 30.888C95.1537 31.0587 94.5297 31.1493 93.8044 31.16ZM112.448 31.16C111.669 31.16 110.992 31.0267 110.416 30.76C109.84 30.4933 109.365 30.1307 108.992 29.672C108.618 29.2027 108.346 28.6853 108.176 28.12H107.152V31H104.112V22.584H107.152V25.48H108.176C108.336 24.904 108.602 24.3867 108.976 23.928C109.349 23.4587 109.824 23.0907 110.4 22.824C110.986 22.5573 111.669 22.424 112.448 22.424C113.418 22.424 114.229 22.6267 114.88 23.032C115.541 23.4373 116.042 23.9707 116.384 24.632C116.725 25.2933 116.896 26.0133 116.896 26.792C116.896 27.56 116.725 28.2747 116.384 28.936C116.042 29.5973 115.541 30.136 114.88 30.552C114.229 30.9573 113.418 31.16 112.448 31.16ZM112.448 28.6C112.704 28.6 112.933 28.5307 113.136 28.392C113.338 28.2427 113.493 28.0347 113.6 27.768C113.717 27.4907 113.776 27.1653 113.776 26.792C113.776 26.4187 113.717 26.0987 113.6 25.832C113.493 25.5547 113.338 25.3467 113.136 25.208C112.933 25.0587 112.704 24.984 112.448 24.984C112.192 24.984 111.962 25.0587 111.76 25.208C111.568 25.3467 111.413 25.5547 111.296 25.832C111.178 26.0987 111.12 26.4187 111.12 26.792C111.12 27.1653 111.178 27.4907 111.296 27.768C111.413 28.0347 111.568 28.2427 111.76 28.392C111.962 28.5307 112.192 28.6 112.448 28.6ZM122.579 31V28.392C122.28 28.52 121.982 28.6107 121.683 28.664C121.395 28.7067 121.048 28.728 120.643 28.728C119.8 28.728 119.107 28.4933 118.563 28.024C118.03 27.544 117.763 26.8613 117.763 25.976V22.584H120.803V25.576C120.803 25.864 120.872 26.0827 121.011 26.232C121.16 26.3813 121.379 26.456 121.667 26.456C121.816 26.456 121.966 26.4453 122.115 26.424C122.275 26.392 122.43 26.344 122.579 26.28V22.584H125.619V31H122.579ZM127.222 31V22.584H130.262V26.952L132.918 22.584H135.686V31H132.646V26.776L130.006 31H127.222ZM139.092 31V25.224H136.692V22.584H144.532V25.224H142.132V31H139.092ZM145.503 31V22.584H148.543V24.952H150.239C151.274 24.952 152.074 25.224 152.639 25.768C153.204 26.3013 153.487 27.0107 153.487 27.896C153.487 28.5147 153.37 29.0587 153.135 29.528C152.9 29.9973 152.554 30.36 152.095 30.616C151.647 30.872 151.092 31 150.431 31H145.503ZM148.543 28.712H149.919C150.09 28.712 150.234 28.68 150.351 28.616C150.468 28.552 150.554 28.4613 150.607 28.344C150.671 28.216 150.703 28.0667 150.703 27.896C150.703 27.7253 150.671 27.5813 150.607 27.464C150.554 27.3467 150.468 27.256 150.351 27.192C150.234 27.1173 150.09 27.08 149.919 27.08H148.543V28.712Z" fill="#EEEEEE"/>
<path d="M39 15L19 35" stroke="#EEEEEE" stroke-width="3" stroke-linecap="round" stroke-linejoin="round"/>
<path d="M19 15L39 35" stroke="#EEEEEE" stroke-width="3" stroke-linecap="round" stroke-linejoin="round"/>
<defs>
<filter id="filter0_d_220_55" x="0" y="4" width="178" height="58" filterUnits="userSpaceOnUse" color-interpolation-filters="sRGB">
<feFlood flood-opacity="0" result="BackgroundImageFix"/>
<feColorMatrix in="SourceAlpha" type="matrix" values="0 0 0 0 0 0 0 0 0 0 0 0 0 0 0 0 0 0 127 0" result="hardAlpha"/>
<feOffset dy="4"/>
<feGaussianBlur stdDeviation="2"/>
<feComposite in2="hardAlpha" operator="out"/>
<feColorMatrix type="matrix" values="0 0 0 0 0 0 0 0 0 0 0 0 0 0 0 0 0 0 0.5 0"/>
<feBlend mode="normal" in2="BackgroundImageFix" result="effect1_dropShadow_220_55"/>
<feBlend mode="normal" in="SourceGraphic" in2="effect1_dropShadow_220_55" result="shape"/>
</filter>
<radialGradient id="paint0_radial_220_55" cx="0" cy="0" r="1" gradientUnits="userSpaceOnUse" gradientTransform="translate(89 50) rotate(-90) scale(41.5 141.1)">
<stop stop-color="#5BB0FF"/>
<stop offset="1" stop-color="#007EF2"/>
</radialGradient>
<radialGradient id="paint1_radial_220_55" cx="0" cy="0" r="1" gradientUnits="userSpaceOnUse" gradientTransform="translate(89 50) rotate(-90) scale(49 166.6)">
<stop stop-color="#B1DAFF"/>
<stop offset="1" stop-color="#75BDFF" stop-opacity="0"/>
</radialGradient>
</defs>
</svg>
