<?xml version="1.0" encoding="UTF-8" standalone="no"?><!DOCTYPE svg PUBLIC "-//W3C//DTD SVG 1.1//EN" "http://www.w3.org/Graphics/SVG/1.1/DTD/svg11.dtd"><svg width="100%" height="100%" viewBox="0 0 1920 1080" version="1.1" xmlns="http://www.w3.org/2000/svg" xmlns:xlink="http://www.w3.org/1999/xlink" xml:space="preserve" xmlns:serif="http://www.serif.com/" style="fill-rule:evenodd;clip-rule:evenodd;stroke-linejoin:round;stroke-miterlimit:2;"><rect id="start" x="0" y="0" width="1920" height="1080" style="fill:none;"/><g id="start1" serif:id="start"><g><path d="M864.131,450C859.738,450 855.705,449.052 852.034,447.156C848.363,445.26 845.188,442.733 842.51,439.573C839.832,436.413 837.755,432.862 836.281,428.92C834.806,424.978 834.069,420.991 834.069,416.958C834.069,413.046 834.746,409.209 836.1,405.448C837.454,401.686 839.44,398.256 842.058,395.156C844.677,392.057 847.881,389.589 851.673,387.753C855.465,385.918 859.768,385 864.583,385L875.513,385L875.781,385.001L900.887,385.001L900.887,392.315L874.789,392.315C871.387,392.363 868.363,393.084 865.718,394.479C862.98,395.924 860.678,397.85 858.812,400.257C856.946,402.664 855.547,405.358 854.614,408.337C853.681,411.316 853.215,414.31 853.215,417.319C853.215,420.63 853.771,423.819 854.885,426.889C855.998,429.958 857.548,432.667 859.534,435.014C861.52,437.361 863.867,439.227 866.576,440.611C869.21,441.957 872.071,442.649 875.16,442.686L900.887,442.686L900.887,450L864.131,450Z" style="fill:white;"/><path d="M1107.97,442.507C1110.23,442.498 1112.23,441.926 1113.96,440.792C1115.71,439.648 1117.2,437.647 1118.43,434.788C1119.66,431.929 1120.64,427.942 1121.36,422.826C1122.09,417.711 1122.57,411.181 1122.81,403.236L1123.35,385.361L1229.74,385.361L1229.74,449.458L1221.61,449.458L1221.61,403.062L1130.93,403.062L1130.57,405.313C1130.27,414.039 1129.62,421.277 1128.63,427.024C1127.64,432.772 1126.22,437.286 1124.39,440.566C1122.55,443.846 1120.28,446.178 1117.57,447.562C1114.86,448.947 1111.64,449.639 1107.91,449.639L1094.3,449.639L1094.3,442.507L1107.97,442.507Z" style="fill:white;"/><path d="M698.783,385.451L698.783,449.549L690.658,449.549L690.658,420.389L623.922,420.389L623.922,449.549L605.812,449.549L605.812,385.451L623.922,385.451L623.922,413.167L690.658,413.167L690.658,385.451L698.783,385.451Z" style="fill:white;"/><path d="M819.62,431.847L819.62,449.549L713.232,449.549L713.232,385.451L818.807,385.451L818.807,403.153L721.357,403.153L721.357,413.438L814.293,413.438L814.293,420.208L721.357,420.208L721.357,431.847L819.62,431.847Z" style="fill:white;"/><path d="M1244.19,449.549L1244.19,385.451L1252.31,385.451L1252.31,413.167L1260.89,413.167L1282.01,385.451L1312.36,385.451L1288.53,416.507L1313.99,449.549L1283.1,449.549L1261.07,420.569L1252.31,420.569L1252.31,449.549L1244.19,449.549Z" style="fill:white;"/><path d="M1036.33,385.451L1053.67,385.451L1079.85,449.549L1060.7,449.549L1053.51,430.771L1025.94,430.771L1018.72,449.549L1010.06,449.549L1036.33,385.451ZM1051.1,424.451L1039.76,394.84L1028.37,424.451L1051.1,424.451Z" style="fill:white;"/><path d="M1354.71,385.451L1382.53,385.451L1408.71,449.549L1379.08,449.549L1371.89,430.771L1344.32,430.771L1337.1,449.549L1328.43,449.549L1354.71,385.451ZM1369.47,424.451L1358.14,394.84L1346.75,424.451L1369.47,424.451Z" style="fill:white;"/><path d="M526.623,404.423L577.191,404.423L580.147,385.451L588.272,385.451L585.316,404.423L591.363,404.423L591.363,411.645L584.191,411.645L582.367,423.355L591.363,423.355L591.363,430.577L581.242,430.577L578.287,449.549L570.162,449.549L573.117,430.577L522.549,430.577L519.594,449.549L511.469,449.549L514.424,430.577L0,430.577L0,423.355L515.549,423.355L517.373,411.645L0,411.645L0,404.423L518.498,404.423L521.453,385.451L529.578,385.451L526.623,404.423ZM576.066,411.645L525.498,411.645L523.674,423.355L574.242,423.355L576.066,411.645Z" style="fill:white;"/><path d="M995.608,433.028C995.608,436.338 994.765,439.227 993.08,441.694C991.395,444.162 989.123,446.088 986.264,447.472C983.405,448.856 980.261,449.549 976.83,449.549L914.969,449.549L914.969,385.451L978.274,385.451C981.284,385.451 983.887,386.249 986.083,387.844C988.28,389.439 989.965,391.485 991.139,393.983C992.313,396.48 992.899,399.083 992.899,401.792C992.899,404.921 992.102,407.855 990.507,410.594C988.912,413.332 986.64,415.363 983.691,416.687C987.362,417.771 990.266,419.772 992.403,422.691C994.539,425.61 995.608,429.056 995.608,433.028ZM976.913,431.583C976.913,429.597 976.477,427.762 975.604,426.076C974.732,424.391 973.558,423.037 972.084,422.014C970.609,420.991 968.909,420.479 966.983,420.479L923.094,420.479L923.094,442.507L966.351,442.507C968.337,442.507 970.128,441.995 971.722,440.972C973.317,439.949 974.581,438.61 975.514,436.955C976.447,435.3 976.913,433.509 976.913,431.583ZM923.094,392.493L923.094,413.889L964.455,413.889C966.381,413.889 968.081,413.407 969.556,412.444C971.03,411.481 972.204,410.187 973.077,408.562C973.949,406.937 974.386,405.162 974.386,403.236C974.386,401.19 973.979,399.369 973.167,397.774C972.354,396.179 971.241,394.9 969.827,393.937C968.412,392.975 966.802,392.493 964.997,392.493L923.094,392.493Z" style="fill:white;"/></g></g></svg>